<svg width="1000" height="323" viewBox="0 0 1000 323" fill="none" xmlns="http://www.w3.org/2000/svg">
<g clip-path="url(#clip0_934_5328)">
<g clip-path="url(#clip1_934_5328)">
<g clip-path="url(#clip2_934_5328)">
<path d="M277.73 10.0703C277.73 4.56375 275.746 0.0998535 273.3 0.0998535C270.853 0.0998535 268.87 4.56375 268.87 10.0703V312.596C268.87 318.103 270.853 322.567 273.3 322.567C275.746 322.567 277.73 318.103 277.73 312.596V10.0703Z" fill="white"/>
<g clip-path="url(#clip3_934_5328)">
<g clip-path="url(#clip4_934_5328)">
<g clip-path="url(#clip5_934_5328)">
<g clip-path="url(#clip6_934_5328)">
<path d="M341.122 102.196C333.285 102.196 326.32 100.31 320.224 96.5368C314.129 92.7636 309.39 87.4609 306.003 80.6315C302.615 73.8195 300.923 66.0614 300.923 57.3541C300.923 47.8719 303.022 39.2343 307.222 31.4355C311.439 23.657 317.206 17.5126 324.52 13.0051C331.814 8.51506 339.865 6.27148 348.668 6.27148C356.699 6.27148 363.81 8.15806 370.001 11.9312C376.192 15.7044 381.03 20.9781 384.513 27.7494C387.996 34.5208 389.737 42.2615 389.737 50.9688C389.737 60.451 387.59 69.1089 383.294 76.9454C378.978 84.782 373.127 90.9438 365.734 95.4339C358.325 99.9413 350.119 102.196 341.122 102.196ZM345.621 94.7953C351.716 94.7953 357.135 93.199 361.874 90.0063C366.614 86.8137 370.291 82.3643 372.903 76.6552C375.516 70.9461 376.822 64.4157 376.822 57.0639C376.822 48.8413 375.42 41.5562 372.613 35.2086C369.806 28.8813 365.917 23.9269 360.945 20.3482C355.953 16.7695 350.215 14.9787 343.734 14.9787C337.833 14.9787 332.589 16.5751 328.003 19.7677C323.397 22.9604 319.818 27.4098 317.264 33.1189C314.69 38.8279 313.404 45.3584 313.404 52.7102C313.404 60.9328 314.759 68.2091 317.467 74.5364C320.175 80.884 323.977 85.8472 328.874 89.4259C333.75 93.0045 339.331 94.7953 345.621 94.7953ZM443.577 102.487C433.805 75.9789 426.502 56.5791 421.664 44.2932H420.938C420.552 48.9371 419.856 57.595 418.849 70.2699C417.824 82.9447 417.31 89.9106 417.31 91.1673C417.31 92.424 417.601 93.3238 418.181 93.8666C418.762 94.389 419.728 94.6502 421.084 94.6502H425.727L426.018 95.0856L425.002 100.89C424.131 100.89 422.468 100.824 420.01 100.687C417.534 100.533 415.084 100.455 412.667 100.455C410.731 100.455 408.652 100.58 406.426 100.832C404.2 101.065 402.749 101.23 402.073 101.326L402.653 95.3758C405.17 95.0856 406.957 94.3309 408.023 93.1119C409.088 91.9132 409.813 89.8119 410.199 86.8137C410.974 80.2339 412.019 70.9955 413.334 59.0955C414.631 47.1956 415.279 40.5201 415.279 39.0688C415.279 37.1329 414.533 35.702 413.044 34.7733C411.535 33.8648 408.943 33.3133 405.265 33.1189L404.83 32.3933L405.846 27.6043C406.911 27.7001 408.798 27.8162 411.506 27.9526C414.214 28.1064 416.826 28.1848 419.342 28.1848C421.47 28.1848 423.435 28.1354 425.234 28.0396C427.013 27.9439 428.194 27.8452 428.775 27.7494C431.677 36.7469 434.513 45.193 437.279 53.0875C440.028 60.9618 442.3 67.2426 444.1 71.9242C445.879 76.6262 447.011 79.5576 447.496 80.7186H448.221C449.286 78.0106 451.684 71.6717 455.419 61.7077C459.134 51.7437 463.169 40.5201 467.522 28.0396C468.103 27.9439 468.857 27.9148 469.786 27.9526C470.695 28.0106 471.586 28.0396 472.456 28.0396C473.522 28.1354 475.069 28.1848 477.1 28.1848C478.647 28.1848 480.902 28.089 483.863 27.8945C486.803 27.7001 488.759 27.5549 489.726 27.4592L490.016 27.8945L489.29 32.9738C485.903 33.3598 483.535 34.0099 482.18 34.9184C480.824 35.8472 480.148 37.278 480.148 39.214C480.148 41.1499 480.487 47.2914 481.164 57.6443C481.84 67.9973 482.519 76.8003 483.195 84.0564C483.68 88.41 484.307 91.2631 485.082 92.6185C485.857 93.9739 487.163 94.6502 489 94.6502L492.338 94.5051L492.628 94.9404L491.612 100.745C490.837 100.745 489.34 100.696 487.114 100.6C484.887 100.504 482.519 100.455 480.003 100.455C477.486 100.455 474.633 100.6 471.441 100.89C468.248 101.181 466.556 101.326 466.361 101.326L466.942 95.3758C469.458 95.0856 471.246 94.5051 472.311 93.6344C473.376 92.7636 473.908 91.4575 473.908 89.7161C473.908 87.9746 473.406 81.0582 472.398 68.9638C471.374 56.8694 470.666 48.6468 470.28 44.2932H469.554C463.845 58.9011 456.589 78.0106 447.786 101.616L443.577 102.487Z" fill="white"/>
<path d="M343.299 209.151C334.786 209.151 327.335 207.313 320.95 203.636C314.565 199.959 309.631 194.755 306.148 188.021C302.665 181.308 300.923 173.401 300.923 164.308C300.923 154.344 303.051 145.492 307.309 137.751C311.567 130.01 317.563 123.985 325.304 119.669C333.044 115.373 341.897 113.226 351.861 113.226C355.44 113.226 359.311 113.487 363.471 114.009C367.63 114.552 371.211 115.083 374.209 115.606C377.208 116.148 379.144 116.514 380.014 116.708L380.595 117.579C380.4 118.16 380.064 119.562 379.579 121.788C379.094 124.014 378.592 126.916 378.07 130.495C377.527 134.074 377.112 137.847 376.822 141.814L370.001 142.395C370.097 141.91 370.195 140.964 370.291 139.551C370.387 138.157 370.436 136.494 370.436 134.558C370.436 130.109 368.724 126.867 365.299 124.835C361.854 122.804 356.264 121.788 348.523 121.788C337.494 121.788 328.911 125.096 322.779 131.714C316.625 138.352 313.549 147.669 313.549 159.664C313.549 168.081 314.904 175.483 317.612 181.868C320.32 188.253 324.192 193.187 329.222 196.67C334.252 200.153 340.057 201.895 346.636 201.895C350.119 201.895 353.312 201.48 356.214 200.647C359.117 199.834 361.564 198.943 363.558 197.976C365.531 197.01 366.518 196.476 366.518 196.38V178.675C366.518 175.387 366.016 173.256 365.009 172.29C363.984 171.323 361.825 170.839 358.536 170.839H348.523L348.233 170.258L349.539 163.002C350.7 163.098 353.167 163.214 356.94 163.35C360.713 163.504 364.391 163.583 367.969 163.583C370.581 163.583 373.144 163.487 375.661 163.292C378.177 163.098 379.773 162.953 380.45 162.857L381.03 166.05C379.289 167.501 378.107 169.794 377.489 172.928C376.851 176.083 376.531 181.238 376.531 188.398C376.531 194.009 376.871 198.267 377.547 201.169L376.677 202.475C376.677 202.571 374.964 203.221 371.539 204.42C368.094 205.639 363.886 206.733 358.914 207.699C353.922 208.666 348.718 209.151 343.299 209.151ZM433.129 208.425L432.693 207.699L433.129 202.475C437.192 202.185 439.929 201.749 441.342 201.169C442.736 200.588 443.432 199.622 443.432 198.267C443.432 196.72 443.093 195.074 442.416 193.332L438.933 182.158C436.998 182.062 432.983 182.013 426.888 182.013C424.082 182.013 419.923 182.303 414.408 182.884L410.345 193.623C409.668 195.849 409.329 197.201 409.329 197.686C409.329 199.233 409.86 200.348 410.925 201.024C411.99 201.7 413.732 202.04 416.149 202.04H422.39L422.825 202.62L421.954 208.135C420.988 208.039 418.791 207.894 415.366 207.699C411.921 207.505 408.554 207.409 405.265 207.409C402.168 207.409 399.394 207.458 396.935 207.554C394.46 207.65 392.785 207.699 391.914 207.699L392.785 201.749C394.912 201.459 396.607 200.705 397.864 199.486C399.121 198.287 400.381 196.235 401.637 193.332L424.421 135.719L434.725 133.833L435.741 133.978C435.741 134.364 437.947 142.009 442.358 156.907C446.75 171.805 450.688 184.14 454.171 193.913C455.138 196.72 456.377 198.673 457.886 199.776C459.375 200.899 461.767 201.604 465.055 201.895L465.345 202.475L464.62 207.699C463.653 207.699 461.863 207.65 459.25 207.554C456.638 207.458 454.026 207.409 451.414 207.409C447.446 207.409 443.673 207.554 440.094 207.845C436.516 208.135 434.194 208.329 433.129 208.425ZM416.73 176.063H426.598C429.985 176.063 433.515 175.869 437.192 175.483L428.34 147.329H427.324L416.73 176.063ZM532.972 187.673L532.827 145.733C532.827 142.54 531.521 140.944 528.908 140.944H524.555L524.265 140.363L525.28 134.704C526.151 134.799 527.797 134.898 530.215 134.994C532.632 135.09 535.099 135.139 537.616 135.139C539.743 135.139 542.144 135.014 544.814 134.762C547.464 134.529 549.176 134.364 549.951 134.268L549.371 140.218C546.564 140.604 544.561 141.35 543.363 142.453C542.144 143.576 541.485 145.248 541.389 147.474L539.647 209.876L533.988 211.473C524.796 198.026 515.508 184.866 506.124 172C496.741 159.133 492.048 152.794 492.048 152.989H491.322L490.887 196.96C490.887 198.798 491.177 200.057 491.758 200.734C492.338 201.41 493.304 201.749 494.66 201.749L500.465 201.604L500.9 202.04L499.739 207.845C498.868 207.749 497.147 207.65 494.573 207.554C492.019 207.458 489.34 207.409 486.533 207.409C484.307 207.409 481.939 207.534 479.422 207.786C476.906 208.019 475.263 208.184 474.488 208.28L475.214 202.33C477.631 202.04 479.422 201.334 480.583 200.211C481.744 199.108 482.374 197.445 482.47 195.219L484.066 147.329C484.066 144.911 483.37 143.237 481.976 142.308C480.563 141.399 477.875 140.703 473.908 140.218L473.327 139.492L474.343 134.558C475.118 134.654 476.587 134.77 478.755 134.907C480.94 135.061 483.146 135.139 485.372 135.139C487.5 135.139 489.386 135.09 491.032 134.994C492.678 134.898 493.74 134.799 494.225 134.704C502.061 146.217 510.353 157.972 519.098 169.968C527.864 181.964 532.246 187.867 532.246 187.673H532.972ZM562.867 208.57L563.592 202.475C567.171 202.089 569.592 201.218 570.848 199.863C572.105 198.507 572.735 196.185 572.735 192.897L572.88 146.894C572.88 144.476 572.59 142.851 572.009 142.018C571.429 141.205 570.268 140.799 568.527 140.799L564.608 140.944L564.318 140.363L565.189 134.849C566.35 134.849 568.622 134.898 572.009 134.994C575.397 135.09 579.071 135.139 583.039 135.139C599.196 135.139 611.143 134.704 618.884 133.833L619.319 134.558C619.124 135.624 618.689 138.041 618.013 141.814C617.337 145.588 616.852 149.651 616.562 154.005L609.596 154.585C609.596 154.199 609.645 153.54 609.741 152.611C609.837 151.703 609.886 150.763 609.886 149.796C609.886 147.28 609.529 145.509 608.812 144.485C608.078 143.478 606.577 142.801 604.313 142.453C602.029 142.125 598.082 141.96 592.471 141.96C589.859 141.96 588.069 142.026 587.102 142.163C586.136 142.317 585.506 142.656 585.215 143.179C584.925 143.721 584.731 144.717 584.635 146.168L583.764 166.775L595.664 166.92C597.406 166.92 599.968 166.746 603.356 166.398C606.743 166.07 608.966 165.855 610.031 165.759L610.612 166.485L608.87 174.031C607.805 174.031 605.707 173.982 602.572 173.886C599.417 173.79 596.1 173.741 592.617 173.741C589.909 173.741 586.861 173.982 583.474 174.467C583.184 181.819 583.039 188.448 583.039 194.348C583.039 196.574 583.213 198.121 583.561 198.992C583.889 199.863 584.664 200.443 585.883 200.734C587.082 201.024 589.084 201.169 591.891 201.169C598.181 201.169 602.679 200.879 605.387 200.298C608.095 199.718 610.011 198.528 611.134 196.728C612.237 194.949 613.128 191.881 613.804 187.528L620.19 186.947L620.77 187.673C620.48 188.738 619.978 191.222 619.261 195.132C618.527 199.059 617.963 203.151 617.577 207.409L616.707 208.135C614.095 208.039 608.676 207.894 600.453 207.699C592.231 207.505 585.555 207.409 580.426 207.409C576.459 207.409 572.784 207.583 569.397 207.932C566.01 208.26 563.833 208.474 562.867 208.57ZM656.47 208.715C653.083 208.715 649.968 208.425 647.124 207.845C644.259 207.264 641.987 206.655 640.303 206.016C638.6 205.398 637.555 204.991 637.169 204.797L636.443 203.491C636.539 203.006 636.713 201.915 636.966 200.211C637.198 198.528 637.439 196.156 637.691 193.1C637.923 190.061 638.04 186.996 638.04 183.9L644.57 183.319C644.57 188.543 644.985 192.433 645.818 194.987C646.631 197.561 648.053 199.332 650.085 200.298C652.116 201.265 655.213 201.749 659.372 201.749C664.016 201.749 667.769 200.734 670.634 198.702C673.478 196.67 674.9 193.962 674.9 190.575C674.9 188.349 674.108 186.387 672.52 184.683C670.915 183 669.075 181.578 667.006 180.417C664.916 179.256 661.598 177.564 657.05 175.337C650.859 172.339 646.1 169.387 642.77 166.485C639.424 163.583 637.749 159.859 637.749 155.311C637.749 151.247 638.989 147.57 641.464 144.281C643.923 140.993 647.327 138.427 651.681 136.59C656.035 134.753 660.873 133.833 666.193 133.833C669.386 133.833 672.384 134.027 675.19 134.413C677.997 134.799 680.22 135.206 681.866 135.632C683.512 136.076 684.528 136.396 684.914 136.59L685.494 137.606C685.3 138.671 684.864 141.06 684.188 144.775C683.512 148.51 683.027 152.504 682.737 156.762L677.077 157.342L676.206 156.762C676.206 156.472 676.256 155.871 676.351 154.962C676.447 154.034 676.497 152.893 676.497 151.538C676.497 147.764 675.51 145.123 673.536 143.614C671.542 142.125 668.03 141.379 663 141.379C658.937 141.379 655.579 142.317 652.929 144.194C650.259 146.09 648.924 148.49 648.924 151.392C648.924 154.295 650.259 156.762 652.929 158.794C655.579 160.825 659.613 163.147 665.032 165.759C669.772 167.986 673.574 169.919 676.439 171.564C679.283 173.21 681.721 175.288 683.753 177.804C685.784 180.321 686.8 183.223 686.8 186.512C686.8 190.865 685.523 194.705 682.969 198.034C680.395 201.381 676.816 203.993 672.23 205.871C667.624 207.766 662.371 208.715 656.47 208.715ZM703.199 208.715L703.924 202.765C707.503 202.089 709.924 201.091 711.181 199.776C712.437 198.478 713.067 196.235 713.067 193.042L713.212 146.894C713.212 144.476 712.922 142.851 712.341 142.018C711.761 141.205 710.6 140.799 708.859 140.799L704.94 140.944L704.505 140.363L705.376 134.849C706.342 134.849 708.162 134.898 710.832 134.994C713.482 135.09 716.164 135.139 718.872 135.139C721.098 135.139 723.757 134.994 726.854 134.704C729.95 134.413 731.982 134.219 732.949 134.123L732.368 140.073C730.046 140.459 728.401 140.915 727.434 141.437C726.468 141.98 725.817 142.801 725.489 143.904C725.141 145.027 724.871 146.943 724.677 149.651L723.951 167.211L742.817 167.356C747.945 167.356 753.507 167.016 759.506 166.34L759.651 146.894C759.651 144.476 759.361 142.851 758.78 142.018C758.2 141.205 757.039 140.799 755.297 140.799L751.234 140.944L750.944 140.363L751.814 134.849C752.685 134.944 754.377 135.014 756.894 135.052C759.41 135.11 761.877 135.139 764.295 135.139C766.617 135.139 769.452 134.994 772.799 134.704C776.128 134.413 778.322 134.219 779.387 134.123L778.952 140.073C775.954 140.459 773.969 141.06 773.002 141.872C772.036 142.705 771.502 144.232 771.406 146.458C771.02 154.1 770.66 162.633 770.332 172.058C769.984 181.499 769.809 188.784 769.809 193.913C769.809 197.01 770.149 199.059 770.825 200.066C771.502 201.091 772.857 201.604 774.889 201.604C776.05 201.604 777.115 201.555 778.081 201.459C779.048 201.363 779.678 201.314 779.968 201.314L780.403 201.895L779.242 207.699C778.177 207.699 776.174 207.65 773.234 207.554C770.274 207.458 767.197 207.409 764.005 207.409L749.492 207.554L750.653 201.749C753.17 201.749 755.036 201.439 756.255 200.821C757.454 200.182 758.296 199.059 758.78 197.454C759.265 195.866 759.506 193.478 759.506 190.285V174.031L742.817 173.886C741.27 173.886 738.124 174.052 733.384 174.38C728.644 174.728 725.452 174.951 723.806 175.047L723.371 193.913C723.371 197.01 723.71 199.088 724.387 200.153C725.063 201.218 726.418 201.749 728.45 201.749C729.611 201.749 730.676 201.7 731.643 201.604C732.609 201.509 733.239 201.41 733.529 201.314L733.819 201.895L732.804 207.699C732.029 207.699 730.56 207.65 728.392 207.554C726.206 207.458 723.902 207.409 721.484 207.409C717.905 207.409 713.987 207.554 709.729 207.845C705.471 208.135 703.295 208.425 703.199 208.715ZM827.858 208.425L827.422 207.699L827.858 202.475C831.921 202.185 834.658 201.749 836.072 201.169C837.465 200.588 838.161 199.622 838.161 198.267C838.161 196.72 837.822 195.074 837.146 193.332L833.663 182.158C831.727 182.062 827.713 182.013 821.618 182.013C818.811 182.013 814.652 182.303 809.137 182.884L805.074 193.623C804.398 195.849 804.058 197.201 804.058 197.686C804.058 199.233 804.589 200.348 805.654 201.024C806.719 201.7 808.461 202.04 810.879 202.04H817.119L817.554 202.62L816.683 208.135C815.717 208.039 813.52 207.894 810.095 207.699C806.65 207.505 803.283 207.409 799.995 207.409C796.898 207.409 794.123 207.458 791.665 207.554C789.189 207.65 787.514 207.699 786.643 207.699L787.514 201.749C789.642 201.459 791.337 200.705 792.593 199.486C793.85 198.287 795.11 196.235 796.367 193.332L819.151 135.719L829.454 133.833L830.47 133.978C830.47 134.364 832.676 142.009 837.088 156.907C841.479 171.805 845.417 184.14 848.9 193.913C849.867 196.72 851.106 198.673 852.615 199.776C854.104 200.899 856.496 201.604 859.784 201.895L860.075 202.475L859.349 207.699C858.383 207.699 856.592 207.65 853.98 207.554C851.367 207.458 848.755 207.409 846.143 207.409C842.175 207.409 838.402 207.554 834.824 207.845C831.245 208.135 828.923 208.329 827.858 208.425ZM811.459 176.063H821.327C824.715 176.063 828.244 175.869 831.921 175.483L823.069 147.329H822.053L811.459 176.063ZM873.281 208.715L874.151 202.765C877.054 202.281 879.181 201.654 880.537 200.879C881.892 200.104 882.763 198.992 883.149 197.541C883.535 196.09 883.729 193.913 883.729 191.01V186.512C883.729 184.286 883.489 182.303 883.004 180.562C882.519 178.82 881.602 176.643 880.247 174.031L869.362 153.134C867.525 149.651 866.12 147.204 865.154 145.791C864.187 144.398 862.928 143.266 861.381 142.395C859.834 141.524 857.608 140.944 854.705 140.653L854.415 140.073L855.286 134.849C856.156 134.849 857.927 134.898 860.597 134.994C863.247 135.09 866.025 135.139 868.927 135.139C871.635 135.139 874.926 135.014 878.795 134.762C882.664 134.529 885.181 134.364 886.342 134.268L886.777 135.139L886.342 139.928C883.053 140.122 880.807 140.479 879.608 141.002C878.389 141.545 877.779 142.491 877.779 143.846C877.779 145.103 879.501 149.265 882.946 156.327C886.371 163.388 888.809 168.322 890.26 171.129H890.985L903.466 148.78C904.723 146.554 905.352 144.717 905.352 143.266C905.352 141.428 902.981 140.363 898.242 140.073L897.951 139.638L898.677 134.413C899.257 134.413 901.193 134.529 904.482 134.762C907.77 135.014 910.481 135.139 912.609 135.139C915.125 135.139 917.447 135.09 919.574 134.994C921.702 134.898 923.153 134.799 923.928 134.704L924.363 135.574L923.638 140.508C921.026 141.089 918.994 141.864 917.543 142.83C916.091 143.797 914.814 145.056 913.711 146.603C912.588 148.15 910.771 151.006 908.255 155.166L896.5 175.192C895.435 177.224 894.759 179.45 894.468 181.868C894.178 184.286 894.033 188.639 894.033 194.929C894.033 197.445 894.419 199.187 895.194 200.153C895.969 201.12 897.371 201.604 899.402 201.604C900.659 201.604 901.849 201.555 902.972 201.459C904.075 201.363 904.821 201.314 905.207 201.314L905.498 201.749L904.337 207.845C903.176 207.749 900.999 207.65 897.806 207.554C894.613 207.458 891.372 207.409 888.083 207.409C885.567 207.409 882.714 207.583 879.521 207.932C876.328 208.26 874.247 208.521 873.281 208.715Z" fill="white"/>
<path d="M344.315 316.105C335.607 316.105 327.965 314.268 321.385 310.59C314.806 306.913 309.755 301.709 306.235 294.975C302.694 288.262 300.923 280.356 300.923 271.263C300.923 261.589 303.1 252.852 307.454 245.054C311.807 237.275 317.836 231.18 325.536 226.768C333.219 222.377 341.897 220.18 351.571 220.18C355.149 220.18 358.806 220.441 362.542 220.964C366.257 221.506 369.4 222.037 371.975 222.56C374.529 223.103 376.145 223.468 376.822 223.663L377.402 224.534C377.208 225.114 376.9 226.516 376.473 228.742C376.029 230.968 375.545 233.871 375.022 237.449C374.479 241.028 374.064 244.801 373.774 248.769L366.808 249.349C366.904 248.865 367.003 247.965 367.099 246.65C367.194 245.353 367.244 243.884 367.244 242.238C367.244 233.241 360.133 228.742 345.911 228.742C339.526 228.742 333.915 230.289 329.077 233.386C324.238 236.483 320.515 240.854 317.903 246.505C315.29 252.173 313.984 258.831 313.984 266.474C313.984 274.891 315.369 282.292 318.135 288.677C320.883 295.062 324.773 300.017 329.802 303.537C334.832 307.078 340.637 308.849 347.217 308.849C353.797 308.849 359.097 306.983 363.122 303.247C367.128 299.532 370.05 293.756 371.888 285.92L378.853 285.339C378.563 286.79 377.933 290.003 376.967 294.975C376 299.967 375.321 304.64 374.935 308.994L374.064 310.3C374.064 310.396 372.593 310.947 369.653 311.954C366.692 312.979 363.015 313.928 358.623 314.799C354.212 315.67 349.443 316.105 344.315 316.105ZM423.551 315.67C416.971 315.67 411.149 314.218 406.078 311.316C400.99 308.414 397.06 304.301 394.294 298.981C391.546 293.661 390.173 287.516 390.173 280.55C390.173 273.004 391.885 266.204 395.31 260.146C398.755 254.109 403.457 249.37 409.416 245.924C415.357 242.5 422.004 240.787 429.355 240.787C436.031 240.787 441.932 242.238 447.06 245.141C452.189 248.043 456.154 252.127 458.96 257.389C461.767 262.671 463.169 268.795 463.169 275.761C463.169 283.308 461.456 290.099 458.031 296.136C454.586 302.194 449.847 306.962 443.81 310.445C437.752 313.928 431.001 315.67 423.551 315.67ZM427.034 308.704C434.095 308.704 439.804 306.158 444.158 301.07C448.511 296 450.688 289.258 450.688 280.841C450.688 274.455 449.652 268.845 447.583 264.006C445.493 259.168 442.541 255.444 438.73 252.832C434.899 250.22 430.467 248.914 425.437 248.914C418.567 248.914 413.024 251.43 408.806 256.46C404.607 261.49 402.508 268.215 402.508 276.632C402.508 283.017 403.524 288.628 405.556 293.466C407.587 298.304 410.461 302.049 414.176 304.698C417.911 307.369 422.195 308.704 427.034 308.704ZM517.154 316.395C507.381 289.887 500.079 270.488 495.24 258.202H494.515C494.129 262.846 493.432 271.503 492.425 284.178C491.401 296.853 490.887 303.819 490.887 305.076C490.887 306.332 491.177 307.232 491.758 307.775C492.338 308.297 493.304 308.559 494.66 308.559H499.304L499.594 308.994L498.578 314.799C497.707 314.799 496.044 314.732 493.586 314.596C491.11 314.442 488.661 314.363 486.243 314.363C484.307 314.363 482.229 314.488 480.003 314.741C477.777 314.973 476.325 315.138 475.649 315.234L476.23 309.284C478.746 308.994 480.534 308.239 481.599 307.02C482.664 305.822 483.39 303.72 483.776 300.722C484.551 294.142 485.596 284.904 486.91 273.004C488.208 261.104 488.855 254.429 488.855 252.977C488.855 251.041 488.109 249.61 486.62 248.682C485.111 247.773 482.519 247.222 478.842 247.027L478.406 246.302L479.422 241.513C480.487 241.609 482.374 241.725 485.082 241.861C487.79 242.015 490.402 242.093 492.918 242.093C495.046 242.093 497.011 242.044 498.81 241.948C500.59 241.852 501.771 241.754 502.351 241.658C505.254 250.655 508.089 259.101 510.855 266.996C513.604 274.87 515.877 281.151 517.676 285.833C519.455 290.535 520.587 293.466 521.072 294.627H521.798C522.863 291.919 525.26 285.58 528.996 275.616C532.711 265.652 536.745 254.428 541.099 241.948C541.679 241.852 542.434 241.823 543.363 241.861C544.271 241.919 545.162 241.948 546.033 241.948C547.098 242.044 548.645 242.093 550.677 242.093C552.224 242.093 554.479 241.997 557.439 241.803C560.379 241.609 562.336 241.463 563.302 241.368L563.592 241.803L562.867 246.882C559.48 247.268 557.111 247.918 555.756 248.827C554.4 249.756 553.724 251.186 553.724 253.122C553.724 255.058 554.064 261.2 554.74 271.553C555.416 281.906 556.095 290.709 556.772 297.965C557.256 302.318 557.883 305.172 558.658 306.527C559.433 307.882 560.739 308.559 562.577 308.559L565.914 308.414L566.205 308.849L565.189 314.654C564.414 314.654 562.916 314.604 560.69 314.509C558.464 314.413 556.095 314.363 553.579 314.363C551.063 314.363 548.21 314.509 545.017 314.799C541.824 315.089 540.132 315.234 539.938 315.234L540.518 309.284C543.035 308.994 544.822 308.414 545.888 307.543C546.953 306.672 547.484 305.366 547.484 303.625C547.484 301.883 546.982 294.967 545.975 282.872C544.95 270.778 544.242 262.555 543.856 258.202H543.13C537.421 272.81 530.165 291.919 521.362 315.524L517.154 316.395ZM620.915 316.395C611.143 289.887 603.84 270.488 599.002 258.202H598.276C597.89 262.846 597.194 271.503 596.187 284.178C595.162 296.853 594.648 303.819 594.648 305.076C594.648 306.332 594.939 307.232 595.519 307.775C596.1 308.297 597.066 308.559 598.421 308.559H603.065L603.356 308.994L602.34 314.799C601.469 314.799 599.806 314.732 597.348 314.596C594.872 314.442 592.422 314.363 590.004 314.363C588.069 314.363 585.99 314.488 583.764 314.741C581.538 314.973 580.087 315.138 579.411 315.234L579.991 309.284C582.507 308.994 584.295 308.239 585.361 307.02C586.426 305.822 587.151 303.72 587.537 300.722C588.312 294.142 589.357 284.904 590.672 273.004C591.969 261.104 592.617 254.429 592.617 252.977C592.617 251.041 591.871 249.61 590.382 248.682C588.873 247.773 586.281 247.222 582.603 247.027L582.168 246.302L583.184 241.513C584.249 241.609 586.136 241.725 588.843 241.861C591.551 242.015 594.164 242.093 596.68 242.093C598.807 242.093 600.772 242.044 602.572 241.948C604.351 241.852 605.532 241.754 606.113 241.658C609.015 250.655 611.851 259.101 614.617 266.996C617.366 274.87 619.638 281.151 621.438 285.833C623.217 290.535 624.349 293.466 624.833 294.627H625.559C626.624 291.919 629.022 285.58 632.757 275.616C636.472 265.652 640.507 254.428 644.86 241.948C645.441 241.852 646.195 241.823 647.124 241.861C648.033 241.919 648.924 241.948 649.794 241.948C650.859 242.044 652.407 242.093 654.438 242.093C655.985 242.093 658.24 241.997 661.201 241.803C664.141 241.609 666.097 241.463 667.064 241.368L667.354 241.803L666.628 246.882C663.241 247.268 660.873 247.918 659.517 248.827C658.162 249.756 657.486 251.186 657.486 253.122C657.486 255.058 657.825 261.2 658.502 271.553C659.178 281.906 659.857 290.709 660.533 297.965C661.018 302.318 661.645 305.172 662.42 306.527C663.195 307.882 664.501 308.559 666.338 308.559L669.676 308.414L669.966 308.849L668.95 314.654C668.175 314.654 666.678 314.604 664.452 314.509C662.225 314.413 659.857 314.363 657.341 314.363C654.824 314.363 651.971 314.509 648.778 314.799C645.586 315.089 643.894 315.234 643.699 315.234L644.28 309.284C646.796 308.994 648.584 308.414 649.649 307.543C650.714 306.672 651.246 305.366 651.246 303.625C651.246 301.883 650.743 294.967 649.736 282.872C648.712 270.778 648.004 262.555 647.617 258.202H646.892C641.183 272.81 633.927 291.919 625.124 315.524L620.915 316.395ZM684.333 315.67L685.059 309.72C688.736 309.043 691.203 308.045 692.46 306.73C693.717 305.433 694.346 303.189 694.346 299.997L694.492 253.848C694.492 251.43 694.201 249.805 693.621 248.972C693.04 248.159 691.879 247.753 690.138 247.753L685.349 247.898L685.059 247.318L685.784 241.803C686.365 241.803 687.932 241.852 690.486 241.948C693.061 242.044 696.428 242.093 700.587 242.093C702.813 242.093 705.541 241.948 708.772 241.658C712.022 241.368 714.132 241.173 715.099 241.077L714.518 247.027C711.326 247.413 709.198 248.014 708.133 248.827C707.068 249.66 706.441 251.186 706.246 253.413C705.86 261.153 705.492 269.716 705.143 279.099C704.816 288.483 704.65 295.739 704.65 300.867C704.65 303.964 704.99 306.042 705.666 307.107C706.342 308.173 707.698 308.704 709.729 308.704C711.085 308.704 712.321 308.654 713.444 308.559C714.547 308.463 715.293 308.364 715.679 308.268L715.97 308.849L714.954 314.654C713.793 314.654 711.616 314.604 708.423 314.509C705.231 314.413 702.038 314.363 698.845 314.363C696.233 314.363 693.397 314.538 690.341 314.886C687.302 315.214 685.3 315.475 684.333 315.67ZM735.996 314.944L737.012 309.139C740.881 308.849 743.609 308.364 745.197 307.688C746.802 307.012 747.818 305.868 748.244 304.263C748.688 302.675 748.912 299.901 748.912 295.933V247.898C742.817 248.093 738.704 248.429 736.577 248.914C734.449 249.399 732.87 250.531 731.846 252.31C730.839 254.109 729.997 257.476 729.321 262.41L722.5 262.846C722.694 261.589 723.002 258.802 723.429 254.487C723.873 250.191 724.146 245.962 724.241 241.803L725.402 240.787L735.706 241.948H772.712L783.306 240.787L784.467 241.803C784.562 246.061 784.806 250.269 785.192 254.429C785.578 258.588 785.868 261.249 786.063 262.41L779.387 262.846C778.612 257.816 777.713 254.35 776.688 252.455C775.681 250.577 774.183 249.399 772.189 248.914C770.216 248.429 766.422 248.093 760.812 247.898C760.327 252.542 759.892 260.254 759.506 271.03C759.12 281.827 758.925 291.774 758.925 300.867C758.925 303.674 759.456 305.656 760.522 306.817C761.587 307.978 763.328 308.559 765.746 308.559C767.487 308.559 768.91 308.509 770.013 308.414C771.136 308.318 771.841 308.268 772.131 308.268L772.567 308.704L771.551 314.799C770.195 314.799 767.682 314.732 764.005 314.596C760.327 314.442 756.749 314.363 753.266 314.363C749.783 314.363 746.349 314.442 742.962 314.596C739.575 314.732 737.253 314.848 735.996 314.944ZM806.235 314.944L807.251 309.139C811.12 308.849 813.848 308.364 815.435 307.688C817.041 307.012 818.056 305.868 818.483 304.263C818.927 302.675 819.151 299.901 819.151 295.933V247.898C813.055 248.093 808.943 248.429 806.815 248.914C804.688 249.399 803.109 250.531 802.084 252.31C801.077 254.109 800.235 257.476 799.559 262.41L792.739 262.846C792.933 261.589 793.241 258.802 793.667 254.487C794.111 250.191 794.384 245.962 794.48 241.803L795.641 240.787L805.945 241.948H842.95L853.544 240.787L854.705 241.803C854.801 246.061 855.045 250.269 855.431 254.429C855.817 258.588 856.107 261.249 856.302 262.41L849.626 262.846C848.851 257.816 847.951 254.35 846.927 252.455C845.92 250.577 844.422 249.399 842.428 248.914C840.454 248.429 836.661 248.093 831.05 247.898C830.566 252.542 830.13 260.254 829.744 271.03C829.358 281.827 829.164 291.774 829.164 300.867C829.164 303.674 829.695 305.656 830.76 306.817C831.825 307.978 833.567 308.559 835.985 308.559C837.726 308.559 839.148 308.509 840.251 308.414C841.374 308.318 842.08 308.268 842.37 308.268L842.805 308.704L841.789 314.799C840.434 314.799 837.921 314.732 834.243 314.596C830.566 314.442 826.987 314.363 823.504 314.363C820.021 314.363 816.588 314.442 813.201 314.596C809.813 314.732 807.492 314.848 806.235 314.944ZM866.895 315.524L867.621 309.429C871.2 309.043 873.62 308.173 874.877 306.817C876.134 305.462 876.764 303.14 876.764 299.851L876.909 253.848C876.909 251.43 876.618 249.805 876.038 248.972C875.458 248.159 874.297 247.753 872.555 247.753L868.637 247.898L868.347 247.318L869.217 241.803C870.378 241.803 872.651 241.852 876.038 241.948C879.425 242.044 883.1 242.093 887.067 242.093C903.225 242.093 915.171 241.658 922.912 240.787L923.347 241.513C923.153 242.578 922.718 244.996 922.041 248.769C921.365 252.542 920.88 256.605 920.59 260.959L913.624 261.539C913.624 261.153 913.674 260.495 913.769 259.566C913.865 258.657 913.915 257.717 913.915 256.75C913.915 254.234 913.546 252.464 912.812 251.439C912.095 250.432 910.597 249.756 908.313 249.407C906.049 249.079 902.11 248.914 896.5 248.914C893.888 248.914 892.097 248.981 891.131 249.117C890.164 249.271 889.534 249.61 889.244 250.133C888.954 250.676 888.759 251.671 888.664 253.122L887.793 273.73L899.693 273.875C901.434 273.875 903.997 273.701 907.384 273.352C910.771 273.024 912.995 272.81 914.06 272.714L914.64 273.439L912.899 280.986C911.834 280.986 909.726 280.936 906.571 280.841C903.437 280.745 900.128 280.695 896.645 280.695C893.937 280.695 890.89 280.936 887.503 281.421C887.212 288.773 887.067 295.402 887.067 301.303C887.067 303.529 887.233 305.076 887.561 305.946C887.909 306.817 888.684 307.398 889.883 307.688C891.102 307.978 893.113 308.123 895.92 308.123C902.209 308.123 906.708 307.833 909.416 307.253C912.124 306.672 914.031 305.482 915.134 303.683C916.257 301.903 917.157 298.836 917.833 294.482L924.218 293.901L924.799 294.627C924.508 295.692 923.995 298.177 923.26 302.086C922.543 306.013 921.992 310.106 921.606 314.363L920.735 315.089C918.123 314.993 912.704 314.848 904.482 314.654C896.259 314.459 889.584 314.363 884.455 314.363C880.487 314.363 876.813 314.538 873.426 314.886C870.039 315.214 867.862 315.429 866.895 315.524ZM940.617 315.524L941.342 309.429C944.921 309.043 947.342 308.173 948.599 306.817C949.855 305.462 950.485 303.14 950.485 299.851L950.63 253.848C950.63 251.43 950.34 249.805 949.76 248.972C949.179 248.159 948.018 247.753 946.277 247.753L942.358 247.898L942.068 247.318L942.939 241.803C944.1 241.803 946.372 241.852 949.76 241.948C953.147 242.044 956.821 242.093 960.789 242.093C976.946 242.093 988.893 241.658 996.634 240.787L997.069 241.513C996.875 242.578 996.439 244.996 995.763 248.769C995.087 252.542 994.602 256.605 994.312 260.959L987.346 261.539C987.346 261.153 987.395 260.495 987.491 259.566C987.587 258.657 987.636 257.717 987.636 256.75C987.636 254.234 987.267 252.464 986.533 251.439C985.816 250.432 984.319 249.756 982.034 249.407C979.771 249.079 975.832 248.914 970.222 248.914C967.609 248.914 965.819 248.981 964.852 249.117C963.886 249.271 963.256 249.61 962.966 250.133C962.675 250.676 962.481 251.671 962.385 253.122L961.514 273.73L973.414 273.875C975.156 273.875 977.719 273.701 981.106 273.352C984.493 273.024 986.716 272.81 987.781 272.714L988.362 273.439L986.62 280.986C985.555 280.986 983.448 280.936 980.293 280.841C977.158 280.745 973.85 280.695 970.367 280.695C967.659 280.695 964.611 280.936 961.224 281.421C960.934 288.773 960.789 295.402 960.789 301.303C960.789 303.529 960.954 305.076 961.282 305.946C961.63 306.817 962.405 307.398 963.604 307.688C964.823 307.978 966.834 308.123 969.641 308.123C975.931 308.123 980.429 307.833 983.137 307.253C985.845 306.672 987.752 305.482 988.855 303.683C989.978 301.903 990.878 298.836 991.554 294.482L997.94 293.901L998.52 294.627C998.23 295.692 997.716 298.177 996.982 302.086C996.265 306.013 995.714 310.106 995.328 314.363L994.457 315.089C991.845 314.993 986.426 314.848 978.203 314.654C969.981 314.459 963.305 314.363 958.177 314.363C954.209 314.363 950.534 314.538 947.147 314.886C943.76 315.214 941.583 315.429 940.617 315.524Z" fill="white"/>
</g>
</g>
</g>
</g>
<g clip-path="url(#clip7_934_5328)">
<g clip-path="url(#clip8_934_5328)">
<path d="M220.761 286.709C227.688 285.486 233.599 283.657 235.638 282.43C237.674 281.208 237.674 282.028 240.936 287.322C244.194 292.62 244.194 294.862 244.194 294.862C246.533 297.204 246.034 302.199 243.178 303.625C240.323 305.051 238.287 300.876 238.287 300.876C238.287 300.876 238.287 308.927 235.025 308.927C231.766 308.927 229.93 305.055 229.93 305.055C230.137 308.313 229.93 313.002 226.879 313.002C223.823 313.002 222.796 308.11 222.796 308.11C222.796 308.11 223.816 315.037 218.925 315.037C214.033 315.037 214.24 309.326 214.24 309.326C213.627 312.991 207.926 317.882 202.425 317.882C196.917 317.882 191.826 314.827 191.416 306.877C191.013 298.93 198.757 283.849 198.757 283.849C201.398 283.044 213.827 287.939 220.761 286.709ZM202.892 312.727C207.58 312.727 207.784 306.481 207.784 306.481C207.784 306.481 205.227 306.663 203.545 306.577C201.299 306.477 199.431 305.732 199.431 305.732C198.136 308.242 198.211 312.727 202.892 312.727Z" fill="white"/>
<path d="M199.769 271.018C199.769 271.018 197.73 281.208 204.864 279.988C211.998 278.769 214.329 277.001 218.543 276.323C222.326 275.714 226.39 275.817 232.38 276.63C232.38 276.63 232.672 275.068 232.38 271.432C232.037 267.221 230.679 265.589 230.679 265.589C230.679 265.589 219.513 266.262 214.376 266.876C205.848 267.899 199.769 271.018 199.769 271.018Z" fill="white"/>
<path d="M234.073 260.423C234.073 260.423 220.483 259.061 215.053 260.423C209.62 261.781 198.75 265.578 198.75 265.578C198.75 265.578 193.595 258.519 188.015 233.385C182.443 208.251 183.53 190.182 203.235 185.295C222.932 180.4 232.444 213.962 233.531 228.493C234.619 243.032 234.073 260.423 234.073 260.423Z" fill="white"/>
<path d="M152.692 314.224C152.692 314.224 156.225 306.887 156.225 296.427C156.225 285.967 152.692 280.092 152.692 280.092C152.692 280.092 159.897 274.687 163.159 274.013C166.417 273.336 165.608 273.197 169.273 272.245C172.942 271.289 173.89 268.444 175.929 267.899C177.965 267.357 189.377 267.899 189.377 274.352C189.377 280.812 180.072 279.988 180.072 280.669C180.072 281.343 179.669 283.183 180.478 283.115C181.295 283.044 189.106 281.889 189.106 286.855C189.106 291.814 180.001 289.707 180.343 291.4C180.685 293.101 188.7 291.129 188.7 295.14C188.7 299.144 184.015 298.399 183.812 299.144C183.601 299.896 187.684 300.773 187.684 304.72C187.684 308.659 181.027 307.771 181.027 308.934C181.027 310.082 180.143 315.248 176.272 315.387C172.4 315.526 170.361 313.08 169.344 313.144C168.325 313.219 165.202 315.116 161.259 315.116C157.312 315.112 152.692 314.224 152.692 314.224ZM180.001 272.833C180.001 272.833 180.61 273.799 180.475 274.887C180.343 275.974 180.496 277.193 180.496 277.193C180.496 277.193 185.794 276.309 185.106 273.796C184.414 271.296 180.001 272.833 180.001 272.833Z" fill="white"/>
<path d="M135.568 309.469C135.568 309.469 145.893 312.595 145.893 304.039C145.893 295.482 149.561 278.769 140.734 278.769C131.9 278.769 132.851 283.386 132.851 283.386C132.851 283.386 136.117 289.91 136.117 295.885C136.117 301.86 135.568 309.469 135.568 309.469Z" fill="white"/>
<path d="M122.124 281.931C122.124 281.931 124.163 289.568 124.98 295.269C125.796 300.969 128.445 309.939 119.881 312.998C111.325 316.053 94.4085 323.597 75.2494 321.355C56.0939 319.112 39.9937 306.763 35.3091 294.392C30.621 282.017 31.6406 273.871 42.4394 268.772C53.2382 263.674 64.857 260.548 74.2334 265.578C83.6061 270.605 95.6314 281.425 105.617 281.928C115.603 282.427 122.124 281.931 122.124 281.931Z" fill="white"/>
<path d="M169.405 265.578C169.405 265.578 166.656 266.426 165.744 268.573C165.744 268.573 161.662 268.476 158.403 270.911C155.144 273.361 153.815 276.113 153.815 276.113C153.815 276.113 149.615 271.628 139.747 271.628C129.878 271.628 124.983 278.758 124.983 278.758C124.983 278.758 104.872 276.719 96.5869 272.166C88.3015 267.617 77.4314 262.18 77.4314 262.18C77.4314 262.18 89.5244 252.262 90.0663 240.575C90.6082 228.889 83.9592 212.721 79.3352 204.846C74.7112 196.97 72.4045 190.581 72.4045 190.581L77.2959 186.87C77.2959 186.87 92.7829 233.242 117.921 247.371C143.048 261.514 169.405 265.578 169.405 265.578Z" fill="white"/>
<path d="M72.401 256.776C86.3799 254.027 86.4619 237.599 85.2426 229.652C84.0162 221.705 83.2034 216.611 80.3513 217.833C77.4956 219.06 79.107 228.557 76.23 228.557C70.5222 228.557 74.4402 217.22 69.3456 217.024C64.2511 216.817 67.5096 228.433 64.661 227.819C61.8054 227.206 60.3793 216.817 56.5076 216.817C52.6358 216.817 56.1011 230.062 53.4522 230.679C50.8033 231.288 48.7676 220.283 44.6891 220.283C40.6142 220.283 46.1152 235.16 41.2238 235.973C36.3324 236.786 38.5678 233.146 32.6603 232.825C26.7564 232.504 27.9793 240.861 39.7977 249.627C49.3559 256.711 55.8944 260.016 72.401 256.776Z" fill="white"/>
<path d="M58.5431 209.68C62.6181 209.68 65.8802 217.627 70.5648 212.939C75.2494 208.257 65.6734 199.897 58.5431 201.527C51.4093 203.156 44.8886 204.792 48.5536 210.086C52.2186 215.381 58.5431 209.68 58.5431 209.68Z" fill="white"/>
<path d="M33.883 184.806C33.883 184.806 46.5179 195.616 45.0918 200.307C43.6693 204.988 36.3287 205.808 36.5354 216.81C36.7387 227.82 35.1094 233.934 24.9166 227.413C14.731 220.893 18.6028 209.473 20.232 201.323C21.8577 193.17 32.3464 183.426 33.883 184.806Z" fill="white"/>
<path d="M206.493 170.649C215.948 170.649 224.426 167.019 226.469 156.124C228.508 145.222 228.237 134.687 228.237 126.937C228.237 119.186 229.866 115.068 227.146 115.311C224.426 115.553 224.019 125.329 221.984 125.001C218.996 124.516 221.713 112.647 217.606 112.647C214.632 112.651 215.737 127.906 212.472 127.179C209.213 126.455 210.026 115.072 206.493 114.829C202.967 114.587 207.584 132.509 204.044 131.3C200.511 130.092 201.876 119.432 196.985 120.159C192.033 120.894 200.243 140.748 197.527 140.987C194.81 141.229 195.352 135.418 191.006 137.596C188.4 138.901 193.455 170.649 206.493 170.649Z" fill="white"/>
<path d="M136.085 140.491C136.284 139.797 136.344 139.07 136.262 138.352C136.18 137.634 135.957 136.94 135.606 136.308C135.256 135.677 134.784 135.12 134.218 134.671C133.653 134.221 133.004 133.888 132.31 133.689C131.615 133.49 130.888 133.43 130.171 133.513C129.453 133.595 128.758 133.817 128.127 134.168C127.495 134.519 126.939 134.99 126.489 135.556C126.04 136.121 125.706 136.77 125.507 137.465C124.67 140.384 126.135 144.217 129.055 145.051C131.975 145.885 135.247 143.415 136.085 140.491Z" fill="white"/>
<path d="M177.958 179.376C178.073 178.975 178.108 178.554 178.06 178.139C178.013 177.724 177.884 177.322 177.682 176.956C177.479 176.591 177.207 176.269 176.88 176.009C176.553 175.749 176.177 175.556 175.776 175.44C175.374 175.325 174.954 175.29 174.538 175.338C174.123 175.385 173.721 175.514 173.356 175.716C172.99 175.919 172.668 176.191 172.408 176.518C172.148 176.845 171.955 177.221 171.84 177.622C171.348 179.319 172.207 181.537 173.89 182.015C175.58 182.496 177.473 181.066 177.958 179.376Z" fill="white"/>
<path d="M129.582 82.8785C109.771 92.622 101.639 87.916 93.9414 74.6323C100.491 74.6359 115.945 71.6126 129.582 82.8785Z" fill="white"/>
<path d="M173.893 194.653C174.01 194.251 174.047 193.83 174 193.414C173.954 192.998 173.825 192.595 173.622 192.229C173.42 191.863 173.146 191.54 172.818 191.28C172.49 191.02 172.114 190.828 171.711 190.714C171.31 190.597 170.889 190.561 170.473 190.608C170.057 190.655 169.655 190.784 169.289 190.987C168.923 191.19 168.601 191.464 168.341 191.792C168.082 192.12 167.889 192.496 167.776 192.899C167.287 194.592 168.143 196.813 169.829 197.291C171.519 197.773 173.416 196.336 173.893 194.653Z" fill="white"/>
<path d="M164.727 209.345C164.842 208.943 164.877 208.523 164.83 208.108C164.782 207.693 164.653 207.291 164.45 206.926C164.248 206.56 163.975 206.239 163.648 205.979C163.321 205.719 162.945 205.526 162.544 205.411C162.142 205.296 161.722 205.261 161.307 205.309C160.891 205.356 160.49 205.485 160.124 205.688C159.759 205.891 159.437 206.163 159.177 206.491C158.918 206.818 158.725 207.193 158.61 207.595C158.118 209.288 158.977 211.502 160.66 211.983C162.349 212.472 164.243 211.035 164.727 209.345Z" fill="white"/>
<path d="M151.889 219.509C152.022 219.102 152.072 218.672 152.034 218.245C151.997 217.818 151.875 217.403 151.673 217.025C151.472 216.647 151.197 216.313 150.864 216.043C150.531 215.774 150.147 215.574 149.735 215.456C149.323 215.339 148.892 215.305 148.466 215.358C148.041 215.411 147.631 215.549 147.26 215.764C146.89 215.979 146.566 216.266 146.309 216.609C146.052 216.952 145.867 217.343 145.764 217.759C145.28 219.449 146.132 221.67 147.818 222.147C149.508 222.629 151.405 221.203 151.889 219.509Z" fill="white"/>
<path d="M131.237 222.461C131.352 222.059 131.387 221.638 131.339 221.223C131.292 220.808 131.163 220.406 130.96 220.04C130.757 219.674 130.485 219.352 130.157 219.092C129.83 218.832 129.455 218.638 129.053 218.523C128.651 218.408 128.23 218.373 127.815 218.421C127.399 218.468 126.997 218.597 126.632 218.8C126.266 219.002 125.944 219.275 125.684 219.602C125.424 219.93 125.23 220.305 125.115 220.707C124.627 222.4 125.479 224.618 127.169 225.099C128.855 225.581 130.759 224.151 131.237 222.461Z" fill="white"/>
<path d="M116.431 212.746C116.628 211.945 116.507 211.099 116.093 210.385C115.679 209.671 115.005 209.146 114.212 208.919C113.418 208.692 112.568 208.782 111.84 209.169C111.111 209.557 110.561 210.211 110.306 210.995C109.824 212.682 110.673 214.91 112.359 215.388C114.049 215.873 115.942 214.439 116.431 212.746Z" fill="white"/>
<path d="M104.405 199.594C104.52 199.192 104.555 198.771 104.508 198.356C104.46 197.94 104.331 197.538 104.128 197.172C103.925 196.806 103.652 196.484 103.325 196.224C102.997 195.963 102.622 195.77 102.22 195.655C101.817 195.54 101.397 195.505 100.981 195.552C100.565 195.6 100.163 195.729 99.7973 195.932C99.4315 196.135 99.1092 196.408 98.8489 196.735C98.5886 197.063 98.3954 197.438 98.2802 197.84C97.7989 199.53 98.6474 201.755 100.337 202.233C102.027 202.71 103.92 201.288 104.405 199.594Z" fill="white"/>
<path d="M96.6617 187.544C96.8407 186.749 96.7091 185.916 96.2936 185.215C95.8782 184.515 95.2105 183.999 94.4274 183.775C93.6443 183.551 92.805 183.635 92.0816 184.009C91.3582 184.384 90.8055 185.021 90.5368 185.79C90.0555 187.483 90.904 189.704 92.5939 190.182C94.2837 190.66 96.1768 189.234 96.6617 187.544Z" fill="white"/>
<path d="M111.689 43.4838C111.754 43.2739 111.776 43.0533 111.754 42.8348C111.733 42.6163 111.668 42.4043 111.563 42.2112C111.459 42.0181 111.317 41.8478 111.145 41.7103C110.974 41.5727 110.777 41.4708 110.566 41.4103C110.355 41.3498 110.134 41.332 109.916 41.3581C109.698 41.3841 109.487 41.4533 109.296 41.5617C109.106 41.6702 108.938 41.8156 108.804 41.9895C108.67 42.1635 108.572 42.3624 108.516 42.5746C108.266 43.4481 108.708 44.5996 109.582 44.8528C110.455 45.1023 111.439 44.3572 111.689 43.4838Z" fill="white"/>
<path d="M102.587 46.9882C102.697 46.5705 102.64 46.1262 102.427 45.7506C102.213 45.3749 101.861 45.0979 101.446 44.9789C101.031 44.8599 100.585 44.9085 100.205 45.1141C99.8254 45.3198 99.5413 45.6662 99.4139 46.079C99.1644 46.9561 99.6029 48.104 100.48 48.3572C101.357 48.6103 102.337 47.8652 102.587 46.9882Z" fill="white"/>
<path d="M94.9006 51.2093C94.9653 50.9995 94.9875 50.7789 94.9659 50.5604C94.9444 50.3419 94.8794 50.1299 94.7748 49.9368C94.6703 49.7437 94.5283 49.5734 94.3571 49.4359C94.1859 49.2983 93.989 49.1963 93.7779 49.1359C93.5668 49.0754 93.3458 49.0576 93.1278 49.0836C92.9097 49.1096 92.6991 49.1789 92.5082 49.2873C92.3172 49.3958 92.1498 49.5412 92.0158 49.7151C91.8818 49.889 91.7838 50.088 91.7276 50.3002C91.478 51.1773 91.9201 52.3252 92.7936 52.5784C93.667 52.8279 94.651 52.0864 94.9006 51.2093Z" fill="white"/>
<path d="M87.157 55.6266C87.2445 55.2167 87.1732 54.789 86.9575 54.4297C86.7417 54.0704 86.3977 53.8064 85.9948 53.6909C85.592 53.5755 85.1603 53.6173 84.7871 53.8078C84.4138 53.9984 84.1268 54.3235 83.984 54.7175C83.7344 55.5945 84.173 56.7425 85.05 56.9956C85.927 57.2487 86.9074 56.5036 87.157 55.6266Z" fill="white"/>
<path d="M112.505 22.9914C112.626 22.5711 112.575 22.1201 112.363 21.7377C112.151 21.3552 111.795 21.0726 111.375 20.9521C110.955 20.8315 110.504 20.8829 110.121 21.0948C109.739 21.3068 109.456 21.662 109.336 22.0822C109.083 22.9593 109.525 24.1072 110.398 24.3604C111.272 24.6099 112.252 23.8684 112.505 22.9914Z" fill="white"/>
<path d="M118.345 17.8146C118.465 17.3943 118.414 16.9433 118.202 16.5609C117.99 16.1785 117.635 15.8959 117.215 15.7753C116.794 15.6548 116.343 15.7061 115.961 15.9181C115.579 16.13 115.296 16.4852 115.175 16.9055C114.926 17.7825 115.364 18.9305 116.238 19.1836C117.115 19.4332 118.095 18.6916 118.345 17.8146Z" fill="white"/>
<path d="M124.912 15.2976C124.984 15.0859 125.013 14.8617 124.996 14.6387C124.979 14.4156 124.917 14.1983 124.813 14C124.71 13.8017 124.567 13.6266 124.394 13.4851C124.22 13.3437 124.02 13.2389 123.805 13.1773C123.59 13.1156 123.365 13.0983 123.143 13.1263C122.921 13.1544 122.707 13.2273 122.514 13.3406C122.321 13.4538 122.153 13.6051 122.021 13.7853C121.888 13.9654 121.793 14.1706 121.742 14.3885C121.489 15.2619 121.931 16.4135 122.805 16.6666C123.678 16.9162 124.662 16.171 124.912 15.2976Z" fill="white"/>
<path d="M80.5082 60.3966C80.5678 60.1885 80.586 59.9707 80.5615 59.7556C80.537 59.5405 80.4704 59.3323 80.3654 59.1429C80.2605 58.9536 80.1193 58.7867 79.9498 58.6519C79.7804 58.5172 79.5861 58.4171 79.378 58.3574C79.1699 58.2977 78.9521 58.2795 78.737 58.304C78.5219 58.3285 78.3137 58.3951 78.1243 58.5001C77.935 58.605 77.7681 58.7462 77.6333 58.9157C77.4985 59.0851 77.3984 59.2794 77.3387 59.4875C77.0892 60.3645 77.5277 61.5125 78.4047 61.7656C79.2817 62.0188 80.2586 61.2772 80.5082 60.3966Z" fill="white"/>
<path d="M74.1976 66.5823C74.2585 66.3742 74.2775 66.1561 74.2536 65.9406C74.2296 65.7251 74.1632 65.5165 74.0581 65.3268C73.953 65.1372 73.8113 64.9703 73.6413 64.8357C73.4712 64.7012 73.2762 64.6017 73.0675 64.543C72.8594 64.4821 72.6413 64.4631 72.4258 64.4871C72.2103 64.511 72.0017 64.5775 71.812 64.6826C71.6224 64.7877 71.4555 64.9294 71.3209 65.0994C71.1864 65.2694 71.0869 65.4644 71.0282 65.6732C70.7787 66.5502 71.2172 67.6982 72.0906 67.9513C72.9677 68.2009 73.9481 67.4593 74.1976 66.5823Z" fill="white"/>
<path d="M68.9641 73.1422C69.0516 72.7324 68.9803 72.3046 68.7646 71.9453C68.5489 71.586 68.2048 71.322 67.802 71.2066C67.3991 71.0911 66.9675 71.1329 66.5942 71.3235C66.221 71.514 65.9339 71.8391 65.7911 72.2331C65.5416 73.1101 65.9801 74.2581 66.8571 74.5112C67.7341 74.7643 68.711 74.0192 68.9641 73.1422Z" fill="white"/>
<path d="M64.7502 80.4757C64.8608 80.0581 64.8032 79.6138 64.5899 79.2381C64.3766 78.8625 64.0245 78.5854 63.6092 78.4664C63.1939 78.3475 62.7485 78.396 62.3686 78.6017C61.9887 78.8074 61.7046 79.1538 61.5773 79.5666C61.3277 80.4436 61.7662 81.5916 62.6432 81.8447C63.5203 82.0978 64.5007 81.3527 64.7502 80.4757Z" fill="white"/>
<path d="M78.8537 17.0588C78.9261 16.8471 78.9546 16.623 78.9376 16.3999C78.9206 16.1769 78.8585 15.9596 78.755 15.7613C78.6515 15.563 78.5087 15.3878 78.3354 15.2464C78.1621 15.1049 77.9619 15.0002 77.7468 14.9385C77.5318 14.8768 77.3065 14.8595 77.0846 14.8876C76.8626 14.9156 76.6487 14.9885 76.4558 15.1018C76.2629 15.2151 76.0951 15.3664 75.9625 15.5465C75.8298 15.7267 75.7352 15.9319 75.6843 16.1497C75.4312 17.0232 75.8733 18.1747 76.7467 18.4278C77.6202 18.6774 78.6042 17.9358 78.8537 17.0588Z" fill="white"/>
<path d="M1.75045 1.46847C-0.695238 3.91415 14.2498 27.1518 14.2498 27.1518C18.8703 13.9679 29.7404 5.27247 29.7404 5.27247C29.7404 5.27247 4.19614 -0.973659 1.75045 1.46847ZM15.2481 18.82C14.9985 19.6935 14.0145 20.4386 13.1375 20.189C12.2605 19.9395 11.822 18.7844 12.0715 17.9109C12.1312 17.7023 12.2314 17.5076 12.3664 17.3377C12.5014 17.1679 12.6685 17.0262 12.8582 16.921C13.0479 16.8157 13.2564 16.7488 13.472 16.7241C13.6875 16.6995 13.9058 16.7175 14.1144 16.7772C14.3229 16.8369 14.5177 16.9371 14.6876 17.072C14.8574 17.207 14.999 17.3741 15.1043 17.5638C15.2096 17.7535 15.2765 17.9621 15.3011 18.1776C15.3258 18.3932 15.3078 18.6115 15.2481 18.82ZM18.963 13.3368C18.7134 14.2103 17.7294 14.9554 16.8524 14.7058C15.9789 14.4563 15.5369 13.3012 15.79 12.4277C15.8462 12.2155 15.9442 12.0165 16.0782 11.8426C16.2122 11.6687 16.3796 11.5232 16.5706 11.4148C16.7615 11.3064 16.9721 11.2371 17.1902 11.2111C17.4082 11.1851 17.6292 11.2029 17.8403 11.2634C18.0514 11.3238 18.2483 11.4258 18.4195 11.5633C18.5907 11.7009 18.7327 11.8712 18.8372 12.0643C18.9418 12.2573 19.0068 12.4694 19.0283 12.6879C19.0499 12.9064 19.0277 13.127 18.963 13.3368ZM22.6814 8.40267C22.4319 9.2797 21.4479 10.0248 20.5709 9.77525C19.6938 9.52569 19.2553 8.37059 19.5049 7.49356C19.5636 7.28483 19.663 7.08981 19.7976 6.91978C19.9321 6.74975 20.099 6.60808 20.2887 6.50298C20.4783 6.39788 20.6869 6.33143 20.9024 6.30747C21.1179 6.28351 21.336 6.30253 21.5441 6.36341C22.4247 6.61297 22.9345 7.52565 22.6814 8.40267Z" fill="white"/>
<path d="M70.2082 20.5848C70.2957 20.175 70.2244 19.7472 70.0087 19.3879C69.793 19.0286 69.449 18.7646 69.0461 18.6492C68.6433 18.5338 68.2116 18.5755 67.8383 18.7661C67.4651 18.9566 67.1781 19.2817 67.0353 19.6757C66.7857 20.5492 67.2242 21.7007 68.1013 21.9538C68.9783 22.207 69.9587 21.4618 70.2082 20.5848Z" fill="white"/>
<path d="M62.2974 25.7364C62.4079 25.3188 62.3504 24.8745 62.137 24.4989C61.9237 24.1232 61.5716 23.8462 61.1563 23.7272C60.741 23.6082 60.2956 23.6568 59.9158 23.8624C59.5359 24.0681 59.2517 24.4145 59.1244 24.8273C58.8748 25.7044 59.3133 26.8523 60.1904 27.1055C61.0674 27.3586 62.0407 26.6135 62.2974 25.7364Z" fill="white"/>
<path d="M55.2276 30.8275C55.3482 30.4072 55.2969 29.9563 55.0849 29.5738C54.873 29.1914 54.5178 28.9088 54.0975 28.7883C53.6772 28.6677 53.2262 28.7191 52.8438 28.931C52.4614 29.1429 52.1788 29.4981 52.0582 29.9184C51.8087 30.7954 52.2472 31.9434 53.1242 32.1966C54.0012 32.4497 54.9781 31.7046 55.2276 30.8275Z" fill="white"/>
<path d="M48.7854 36.7206C48.896 36.303 48.8384 35.8587 48.6251 35.483C48.4117 35.1074 48.0597 34.8303 47.6444 34.7113C47.2291 34.5923 46.7837 34.6409 46.4038 34.8466C46.0239 35.0523 45.7398 35.3987 45.6124 35.8115C45.3629 36.6885 45.8014 37.8365 46.6784 38.0896C47.5554 38.3427 48.5323 37.5976 48.7854 36.7206Z" fill="white"/>
<path d="M42.7495 43.4837C42.837 43.0739 42.7657 42.6461 42.55 42.2869C42.3343 41.9276 41.9902 41.6635 41.5874 41.5481C41.1845 41.4327 40.7529 41.4745 40.3796 41.665C40.0064 41.8555 39.7193 42.1806 39.5765 42.5746C39.327 43.4481 39.7655 44.5996 40.6425 44.8528C41.5195 45.1059 42.4964 44.3572 42.7495 43.4837Z" fill="white"/>
<path d="M38.5749 50.5106C38.6346 50.3025 38.6527 50.0847 38.6283 49.8696C38.6038 49.6545 38.5371 49.4463 38.4322 49.2569C38.3273 49.0676 38.186 48.9007 38.0166 48.766C37.8472 48.6312 37.6529 48.5311 37.4448 48.4714C37.2367 48.4117 37.0189 48.3936 36.8037 48.4181C36.5886 48.4425 36.3805 48.5092 36.1911 48.6141C36.0017 48.7191 35.8349 48.8603 35.7001 49.0297C35.5653 49.1991 35.4652 49.3934 35.4055 49.6015C35.1524 50.4786 35.5945 51.6265 36.4679 51.8797C37.345 52.1292 38.3254 51.3877 38.5749 50.5106Z" fill="white"/>
<path d="M35.2664 57.9225C35.3769 57.5049 35.3194 57.0606 35.106 56.6849C34.8927 56.3093 34.5406 56.0322 34.1253 55.9132C33.71 55.7942 33.2646 55.8428 32.8848 56.0485C32.5049 56.2542 32.2207 56.6006 32.0934 57.0134C31.8438 57.8904 32.2823 59.0384 33.1594 59.2915C34.0364 59.5446 35.0168 58.7995 35.2664 57.9225Z" fill="white"/>
<path d="M15.3372 43.7903C0.666594 98.2015 29.6619 111.653 31.6691 130.605C33.6763 149.557 20.8417 169.872 42.033 184.678C30.6209 142.424 82.3833 170.756 76.2726 120.006C71.4383 79.8874 23.6903 94.1266 15.3372 43.7903Z" fill="white"/>
<path d="M139.379 38.5602C172.803 16.0071 179.865 43.1807 202.696 27.1482C231.225 78.5041 193.185 113.015 193.185 113.015C179.327 70.0797 157.312 47.7975 139.379 38.5602Z" fill="white"/>
<path d="M106.23 184.806C132.591 196.164 136.121 195.53 158.941 186.877C158.941 216.81 122.327 227.213 106.23 184.806Z" fill="white"/>
<path d="M152.692 178.496C192.072 166.881 186.728 137.126 182.033 112.059C177.352 86.9928 135.771 46.6389 135.771 46.6389C131.09 54.5856 120.894 62.3291 94.6046 73.1351C124.359 64.9816 139.033 76.6004 127.821 86.5828C107.136 105.011 93.5814 91.6774 89.5065 77.4132C78.9073 81.8982 75.6452 84.7503 69.941 91.6774C84.6151 110.426 92.9718 122.245 81.7594 148.944C93.1714 156.285 105.197 156.485 120.89 149.151C116.541 133.475 127.005 118.99 138.01 124.698C149.016 130.406 156.356 160.567 114.983 161.173C106.765 161.294 80.7433 159.34 64.6467 163.009C48.543 166.677 51.8051 188.685 46.1008 191.947C63.0816 195.384 61.5201 182.111 78.9109 179.369C118.291 173.148 131.81 184.656 152.692 178.496ZM130.684 60.5002L140.463 54.9992L141.689 67.2276L130.684 60.5002Z" fill="white"/>
<path d="M198.543 175.644C191.202 174.014 189.987 172.998 186.728 163.012C178.981 210.696 161.861 224.964 147.804 230.087C133.964 235.125 91.3355 223.759 85.1036 181.972L80.7434 183.48C91.8132 215.331 106.138 254.116 191.395 265.582C172.428 214.5 177.965 195.819 198.543 175.644Z" fill="white"/>
<path d="M118.491 45.3767C116.302 45.9222 77.4065 55.9973 67.3706 85.5666C84.4583 57.8119 117.707 48.5033 120.684 47.719C119.957 46.9343 119.226 46.1536 118.491 45.3767Z" fill="white"/>
<path d="M109.874 36.7278C103.304 38.1859 65.1815 47.9794 57.8623 79.8625C70.8537 48.4393 105.639 39.8295 111.753 38.5389C111.131 37.9305 110.505 37.3268 109.874 36.7278Z" fill="white"/>
<path d="M95.2392 24.043C65.1743 27.929 23.4871 69.2347 52.0189 77.6877C60.1332 44.9918 96.4406 35.2054 106.056 33.1662C102.57 29.9859 98.9617 26.9425 95.2392 24.043Z" fill="white"/>
<path d="M86.0697 17.4724C73.9126 21.9075 42.4252 35.9256 35.9866 63.9655C48.2115 34.389 82.1873 23.7756 91.6527 21.3442C89.8244 20.0071 87.9628 18.7161 86.0697 17.4724Z" fill="white"/>
<path d="M62.9604 6.29932C38.197 10.1247 16.6813 41.3589 28.8884 58.1936C37.3484 29.0521 65.8945 15.8254 77.2674 12.2353C71.5774 9.2156 66.7787 7.39025 62.9604 6.29932Z" fill="white"/>
<path d="M122.912 11.0338C115.489 3.98554 105.058 -0.117945 94.9682 4.86969C92.7756 5.9535 98.8221 13.9038 106.601 21.8362C108.797 15.886 113.489 12.0606 122.912 11.0338Z" fill="white"/>
<path d="M129.058 18.5813C121.814 18.4494 116.48 19.822 112.819 27.7401C113.211 28.0931 114.42 29.2518 114.812 29.594C117.243 24.6741 121.839 21.4976 130.188 20.5457C129.832 19.8861 129.454 19.2337 129.058 18.5813Z" fill="white"/>
<path d="M119.479 33.4194C124.962 37.6262 129.593 40.0006 131.09 38.1396C133.778 34.7991 133.821 29.8186 131.989 24.6384C125.693 24.7133 120.331 27.5939 119.479 33.4194Z" fill="white"/>
<path d="M19.0058 31.7116C24.8491 20.8986 35.9438 14.1319 33.6764 10.303C31.9116 7.31179 17.783 21.3264 19.0058 31.7116Z" fill="white"/>
</g>
</g>
</g>
</g>
</g>
<defs>
<clipPath id="clip0_934_5328">
<rect width="1000" height="322.667" fill="white"/>
</clipPath>
<clipPath id="clip1_934_5328">
<rect width="997.04" height="322.467" fill="white" transform="translate(1.47998 0.0998535)"/>
</clipPath>
<clipPath id="clip2_934_5328">
<rect width="997.04" height="322.467" fill="white" transform="translate(1.47998 0.0998535)"/>
</clipPath>
<clipPath id="clip3_934_5328">
<rect width="697.597" height="320.863" fill="white" transform="translate(300.923 0.9021)"/>
</clipPath>
<clipPath id="clip4_934_5328">
<rect width="697.597" height="320.863" fill="white" transform="translate(300.923 0.9021)"/>
</clipPath>
<clipPath id="clip5_934_5328">
<rect width="697.597" height="320.863" fill="white" transform="translate(300.923 0.9021)"/>
</clipPath>
<clipPath id="clip6_934_5328">
<rect width="697.597" height="320.863" fill="white" transform="translate(300.923 0.9021)"/>
</clipPath>
<clipPath id="clip7_934_5328">
<rect width="244.196" height="320.863" fill="white" transform="translate(1.47998 0.9021)"/>
</clipPath>
<clipPath id="clip8_934_5328">
<rect width="244.196" height="320.863" fill="white" transform="translate(1.47998 0.9021)"/>
</clipPath>
</defs>
</svg>
