<svg width="1000" height="323" viewBox="0 0 1000 323" fill="none" xmlns="http://www.w3.org/2000/svg">
<g clip-path="url(#clip0_934_5415)">
<g clip-path="url(#clip1_934_5415)">
<g clip-path="url(#clip2_934_5415)">
<path d="M277.729 10.0705C277.729 4.564 275.746 0.100098 273.299 0.100098C270.853 0.100098 268.869 4.564 268.869 10.0705V312.597C268.869 318.103 270.853 322.567 273.299 322.567C275.746 322.567 277.729 318.103 277.729 312.597V10.0705Z" fill="#B2572B"/>
<g clip-path="url(#clip3_934_5415)">
<g clip-path="url(#clip4_934_5415)">
<g clip-path="url(#clip5_934_5415)">
<g clip-path="url(#clip6_934_5415)">
<path d="M341.122 102.197C333.285 102.197 326.319 100.31 320.224 96.5373C314.129 92.7641 309.389 87.4614 306.002 80.632C302.615 73.82 300.923 66.0618 300.923 57.3546C300.923 47.8724 303.022 39.2348 307.221 31.436C311.439 23.6575 317.206 17.5131 324.52 13.0056C331.814 8.51555 339.865 6.27197 348.668 6.27197C356.699 6.27197 363.81 8.15855 370.001 11.9317C376.192 15.7048 381.03 20.9785 384.513 27.7499C387.996 34.5212 389.737 42.262 389.737 50.9693C389.737 60.4515 387.589 69.1094 383.294 76.9459C378.978 84.7825 373.127 90.9443 365.734 95.4343C358.324 99.9418 350.119 102.197 341.122 102.197ZM345.62 94.7958C351.715 94.7958 357.134 93.1995 361.874 90.0068C366.614 86.8142 370.291 82.3647 372.903 76.6557C375.515 70.9466 376.821 64.4162 376.821 57.0643C376.821 48.8418 375.42 41.5567 372.613 35.2091C369.806 28.8818 365.917 23.9274 360.945 20.3487C355.953 16.77 350.215 14.9792 343.734 14.9792C337.833 14.9792 332.589 16.5756 328.003 19.7682C323.397 22.9609 319.818 27.4103 317.264 33.1194C314.689 38.8284 313.404 45.3589 313.404 52.7107C313.404 60.9333 314.759 68.2096 317.467 74.5369C320.175 80.8845 323.977 85.8477 328.873 89.4263C333.749 93.005 339.331 94.7958 345.62 94.7958ZM443.577 102.487C433.805 75.9794 426.502 56.5796 421.664 44.2937H420.938C420.552 48.9376 419.856 57.5955 418.848 70.2704C417.824 82.9452 417.31 89.911 417.31 91.1678C417.31 92.4245 417.6 93.3243 418.181 93.867C418.761 94.3895 419.728 94.6507 421.083 94.6507H425.727L426.017 95.0861L425.002 100.891C424.131 100.891 422.468 100.824 420.009 100.688C417.534 100.534 415.084 100.456 412.666 100.456C410.73 100.456 408.652 100.58 406.426 100.833C404.2 101.065 402.749 101.23 402.072 101.326L402.653 95.3763C405.169 95.0861 406.957 94.3314 408.022 93.1124C409.088 91.9137 409.813 89.8124 410.199 86.8142C410.974 80.2344 412.019 70.996 413.334 59.096C414.631 47.1961 415.278 40.5205 415.278 39.0693C415.278 37.1334 414.533 35.7025 413.044 34.7738C411.534 33.8653 408.942 33.3138 405.265 33.1194L404.83 32.3938L405.846 27.6048C406.911 27.7005 408.797 27.8166 411.505 27.9531C414.213 28.1069 416.825 28.1853 419.342 28.1853C421.469 28.1853 423.434 28.1359 425.234 28.0401C427.013 27.9444 428.194 27.8457 428.775 27.7499C431.677 36.7474 434.513 45.1934 437.279 53.088C440.027 60.9623 442.3 67.2431 444.1 71.9247C445.879 76.6267 447.011 79.5581 447.495 80.7191H448.221C449.286 78.0111 451.684 71.6722 455.419 61.7082C459.134 51.7442 463.168 40.5205 467.522 28.0401C468.103 27.9444 468.857 27.9153 469.786 27.9531C470.694 28.0111 471.585 28.0401 472.456 28.0401C473.521 28.1359 475.068 28.1853 477.1 28.1853C478.647 28.1853 480.902 28.0895 483.863 27.895C486.803 27.7005 488.759 27.5554 489.726 27.4596L490.016 27.895L489.29 32.9742C485.903 33.3603 483.535 34.0104 482.179 34.9189C480.824 35.8476 480.148 37.2785 480.148 39.2145C480.148 41.1504 480.487 47.2919 481.163 57.6448C481.84 67.9978 482.519 76.8008 483.195 84.0569C483.68 88.4105 484.307 91.2636 485.082 92.619C485.857 93.9744 487.163 94.6507 489 94.6507L492.338 94.5056L492.628 94.9409L491.612 100.746C490.837 100.746 489.34 100.696 487.113 100.601C484.887 100.505 482.519 100.456 480.002 100.456C477.486 100.456 474.633 100.601 471.44 100.891C468.248 101.181 466.556 101.326 466.361 101.326L466.942 95.3763C469.458 95.0861 471.246 94.5056 472.311 93.6348C473.376 92.7641 473.907 91.458 473.907 89.7166C473.907 87.9751 473.405 81.0587 472.398 68.9643C471.374 56.8699 470.665 48.6473 470.279 44.2937H469.554C463.845 58.9016 456.589 78.0111 447.786 101.617L443.577 102.487Z" fill="#B2572B"/>
<path d="M343.298 209.151C334.786 209.151 327.335 207.314 320.95 203.636C314.564 199.959 309.63 194.755 306.147 188.021C302.665 181.308 300.923 173.402 300.923 164.309C300.923 154.345 303.051 145.492 307.308 137.752C311.566 130.011 317.563 123.985 325.303 119.669C333.044 115.374 341.897 113.226 351.861 113.226C355.439 113.226 359.311 113.487 363.47 114.01C367.629 114.552 371.211 115.084 374.209 115.606C377.207 116.149 379.143 116.515 380.014 116.709L380.595 117.58C380.4 118.16 380.063 119.562 379.579 121.788C379.094 124.014 378.592 126.917 378.069 130.495C377.527 134.074 377.112 137.847 376.821 141.815L370.001 142.395C370.096 141.911 370.195 140.965 370.291 139.551C370.387 138.158 370.436 136.495 370.436 134.559C370.436 130.109 368.724 126.867 365.299 124.836C361.854 122.804 356.264 121.788 348.523 121.788C337.494 121.788 328.911 125.097 322.778 131.714C316.625 138.352 313.549 147.669 313.549 159.665C313.549 168.082 314.904 175.483 317.612 181.868C320.32 188.254 324.192 193.188 329.222 196.671C334.252 200.154 340.056 201.895 346.636 201.895C350.119 201.895 353.312 201.48 356.214 200.647C359.117 199.834 361.563 198.943 363.557 197.977C365.531 197.01 366.518 196.476 366.518 196.38V178.676C366.518 175.387 366.016 173.257 365.009 172.29C363.984 171.324 361.825 170.839 358.536 170.839H348.523L348.233 170.259L349.539 163.003C350.7 163.098 353.167 163.214 356.94 163.351C360.713 163.505 364.39 163.583 367.969 163.583C370.581 163.583 373.144 163.487 375.66 163.293C378.177 163.098 379.773 162.953 380.449 162.857L381.03 166.05C379.288 167.501 378.107 169.794 377.489 172.929C376.85 176.084 376.531 181.239 376.531 188.399C376.531 194.009 376.871 198.267 377.547 201.169L376.676 202.476C376.676 202.571 374.964 203.221 371.539 204.42C368.094 205.639 363.885 206.733 358.913 207.7C353.921 208.666 348.717 209.151 343.298 209.151ZM433.128 208.425L432.693 207.7L433.128 202.476C437.192 202.185 439.929 201.75 441.342 201.169C442.735 200.589 443.432 199.622 443.432 198.267C443.432 196.72 443.092 195.074 442.416 193.333L438.933 182.159C436.997 182.063 432.983 182.013 426.888 182.013C424.082 182.013 419.922 182.304 414.408 182.884L410.344 193.623C409.668 195.849 409.329 197.202 409.329 197.687C409.329 199.234 409.86 200.348 410.925 201.024C411.99 201.701 413.731 202.04 416.149 202.04H422.389L422.825 202.621L421.954 208.135C420.988 208.039 418.79 207.894 415.366 207.7C411.92 207.505 408.554 207.41 405.265 207.41C402.168 207.41 399.394 207.459 396.935 207.555C394.459 207.651 392.785 207.7 391.914 207.7L392.785 201.75C394.912 201.46 396.607 200.705 397.864 199.486C399.121 198.287 400.38 196.235 401.637 193.333L424.421 135.72L434.725 133.833L435.741 133.978C435.741 134.364 437.946 142.009 442.358 156.908C446.749 171.806 450.688 184.141 454.171 193.913C455.137 196.72 456.377 198.673 457.886 199.776C459.375 200.9 461.767 201.605 465.055 201.895L465.345 202.476L464.62 207.7C463.653 207.7 461.862 207.651 459.25 207.555C456.638 207.459 454.026 207.41 451.414 207.41C447.446 207.41 443.673 207.555 440.094 207.845C436.515 208.135 434.194 208.33 433.128 208.425ZM416.73 176.063H426.598C429.985 176.063 433.514 175.869 437.192 175.483L428.339 147.33H427.324L416.73 176.063ZM532.972 187.673L532.827 145.733C532.827 142.541 531.52 140.944 528.908 140.944H524.555L524.264 140.364L525.28 134.704C526.151 134.8 527.797 134.898 530.214 134.994C532.632 135.09 535.099 135.139 537.616 135.139C539.743 135.139 542.143 135.015 544.814 134.762C547.463 134.53 549.176 134.364 549.951 134.269L549.37 140.219C546.564 140.605 544.561 141.351 543.362 142.453C542.143 143.577 541.484 145.248 541.389 147.475L539.647 209.877L533.987 211.473C524.796 198.026 515.508 184.867 506.124 172C496.741 159.134 492.047 152.795 492.047 152.989H491.322L490.887 196.961C490.887 198.798 491.177 200.058 491.757 200.734C492.338 201.41 493.304 201.75 494.66 201.75L500.465 201.605L500.9 202.04L499.739 207.845C498.868 207.749 497.147 207.651 494.573 207.555C492.018 207.459 489.34 207.41 486.533 207.41C484.307 207.41 481.938 207.534 479.422 207.787C476.906 208.019 475.263 208.185 474.488 208.28L475.213 202.33C477.631 202.04 479.422 201.335 480.583 200.212C481.744 199.109 482.374 197.446 482.47 195.219L484.066 147.33C484.066 144.912 483.369 143.237 481.976 142.308C480.563 141.4 477.875 140.703 473.907 140.219L473.327 139.493L474.343 134.559C475.118 134.655 476.586 134.771 478.754 134.907C480.94 135.061 483.146 135.139 485.372 135.139C487.499 135.139 489.386 135.09 491.032 134.994C492.677 134.898 493.74 134.8 494.224 134.704C502.061 146.218 510.353 157.973 519.098 169.968C527.863 181.964 532.246 187.868 532.246 187.673H532.972ZM562.867 208.571L563.592 202.476C567.171 202.089 569.591 201.219 570.848 199.863C572.105 198.508 572.735 196.186 572.735 192.898L572.88 146.894C572.88 144.476 572.59 142.851 572.009 142.018C571.429 141.205 570.268 140.799 568.526 140.799L564.608 140.944L564.318 140.364L565.189 134.849C566.349 134.849 568.622 134.898 572.009 134.994C575.396 135.09 579.071 135.139 583.038 135.139C599.196 135.139 611.143 134.704 618.883 133.833L619.319 134.559C619.124 135.624 618.689 138.042 618.013 141.815C617.336 145.588 616.852 149.651 616.561 154.005L609.596 154.586C609.596 154.2 609.645 153.541 609.741 152.612C609.836 151.703 609.886 150.763 609.886 149.797C609.886 147.28 609.529 145.51 608.812 144.485C608.078 143.478 606.577 142.802 604.313 142.453C602.029 142.125 598.082 141.96 592.471 141.96C589.859 141.96 588.068 142.027 587.102 142.163C586.135 142.317 585.505 142.657 585.215 143.179C584.925 143.722 584.731 144.717 584.635 146.169L583.764 166.776L595.664 166.921C597.405 166.921 599.968 166.747 603.355 166.398C606.742 166.07 608.966 165.856 610.031 165.76L610.611 166.486L608.87 174.032C607.805 174.032 605.706 173.982 602.572 173.887C599.417 173.791 596.099 173.742 592.616 173.742C589.908 173.742 586.861 173.982 583.474 174.467C583.184 181.819 583.038 188.448 583.038 194.349C583.038 196.575 583.213 198.122 583.561 198.993C583.889 199.863 584.664 200.444 585.883 200.734C587.081 201.024 589.084 201.169 591.891 201.169C598.18 201.169 602.679 200.879 605.387 200.299C608.095 199.718 610.011 198.528 611.134 196.729C612.237 194.95 613.128 191.882 613.804 187.528L620.189 186.948L620.77 187.673C620.48 188.738 619.978 191.223 619.261 195.132C618.526 199.059 617.963 203.152 617.577 207.41L616.706 208.135C614.094 208.039 608.675 207.894 600.453 207.7C592.23 207.505 585.555 207.41 580.426 207.41C576.459 207.41 572.784 207.584 569.397 207.932C566.01 208.26 563.833 208.475 562.867 208.571ZM656.47 208.716C653.083 208.716 649.968 208.425 647.124 207.845C644.259 207.265 641.987 206.655 640.303 206.016C638.599 205.398 637.555 204.992 637.169 204.797L636.443 203.491C636.539 203.007 636.713 201.915 636.965 200.212C637.198 198.528 637.438 196.157 637.691 193.101C637.923 190.062 638.039 186.997 638.039 183.9L644.57 183.32C644.57 188.544 644.985 192.433 645.818 194.987C646.63 197.562 648.053 199.332 650.084 200.299C652.116 201.265 655.213 201.75 659.372 201.75C664.016 201.75 667.769 200.734 670.633 198.702C673.478 196.671 674.9 193.963 674.9 190.576C674.9 188.349 674.108 186.387 672.52 184.684C670.915 183 669.075 181.578 667.005 180.417C664.916 179.256 661.598 177.564 657.05 175.338C650.859 172.34 646.099 169.388 642.77 166.486C639.424 163.583 637.749 159.859 637.749 155.311C637.749 151.248 638.988 147.57 641.464 144.282C643.922 140.994 647.327 138.428 651.681 136.591C656.034 134.753 660.873 133.833 666.193 133.833C669.385 133.833 672.384 134.028 675.19 134.414C677.997 134.8 680.22 135.206 681.866 135.633C683.511 136.077 684.527 136.396 684.913 136.591L685.494 137.606C685.299 138.672 684.864 141.06 684.188 144.775C683.512 148.511 683.027 152.505 682.737 156.762L677.077 157.343L676.206 156.762C676.206 156.472 676.255 155.871 676.351 154.963C676.447 154.034 676.496 152.893 676.496 151.538C676.496 147.765 675.51 145.124 673.536 143.614C671.542 142.125 668.03 141.38 663 141.38C658.937 141.38 655.579 142.317 652.929 144.195C650.258 146.09 648.923 148.49 648.923 151.393C648.923 154.295 650.258 156.762 652.929 158.794C655.579 160.826 659.613 163.148 665.032 165.76C669.771 167.986 673.574 169.919 676.438 171.565C679.283 173.21 681.721 175.289 683.752 177.805C685.784 180.321 686.8 183.224 686.8 186.512C686.8 190.866 685.523 194.706 682.969 198.035C680.394 201.381 676.816 203.993 672.23 205.871C667.624 207.767 662.37 208.716 656.47 208.716ZM703.199 208.716L703.924 202.766C707.503 202.089 709.924 201.091 711.18 199.776C712.437 198.479 713.067 196.235 713.067 193.043L713.212 146.894C713.212 144.476 712.922 142.851 712.341 142.018C711.761 141.205 710.6 140.799 708.858 140.799L704.94 140.944L704.505 140.364L705.375 134.849C706.342 134.849 708.162 134.898 710.832 134.994C713.482 135.09 716.164 135.139 718.872 135.139C721.098 135.139 723.756 134.994 726.853 134.704C729.95 134.414 731.982 134.219 732.948 134.124L732.368 140.073C730.046 140.459 728.4 140.915 727.434 141.438C726.467 141.98 725.817 142.802 725.489 143.905C725.141 145.028 724.871 146.944 724.677 149.651L723.951 167.211L742.817 167.356C747.945 167.356 753.506 167.017 759.506 166.34L759.651 146.894C759.651 144.476 759.36 142.851 758.78 142.018C758.199 141.205 757.039 140.799 755.297 140.799L751.234 140.944L750.943 140.364L751.814 134.849C752.685 134.945 754.377 135.015 756.893 135.052C759.41 135.11 761.877 135.139 764.295 135.139C766.616 135.139 769.452 134.994 772.799 134.704C776.128 134.414 778.322 134.219 779.387 134.124L778.952 140.073C775.954 140.459 773.968 141.06 773.002 141.873C772.035 142.706 771.501 144.233 771.406 146.459C771.019 154.101 770.66 162.634 770.332 172.058C769.983 181.5 769.809 188.785 769.809 193.913C769.809 197.01 770.149 199.059 770.825 200.067C771.501 201.091 772.857 201.605 774.888 201.605C776.049 201.605 777.115 201.555 778.081 201.46C779.048 201.364 779.677 201.315 779.968 201.315L780.403 201.895L779.242 207.7C778.177 207.7 776.174 207.651 773.234 207.555C770.274 207.459 767.197 207.41 764.004 207.41L749.492 207.555L750.653 201.75C753.17 201.75 755.036 201.439 756.255 200.821C757.454 200.183 758.295 199.059 758.78 197.454C759.265 195.867 759.506 193.478 759.506 190.285V174.032L742.817 173.887C741.27 173.887 738.123 174.052 733.384 174.38C728.644 174.728 725.451 174.952 723.806 175.048L723.37 193.913C723.37 197.01 723.71 199.088 724.386 200.154C725.063 201.219 726.418 201.75 728.45 201.75C729.611 201.75 730.676 201.701 731.642 201.605C732.609 201.509 733.239 201.41 733.529 201.315L733.819 201.895L732.803 207.7C732.028 207.7 730.56 207.651 728.392 207.555C726.206 207.459 723.902 207.41 721.484 207.41C717.905 207.41 713.987 207.555 709.729 207.845C705.471 208.135 703.294 208.425 703.199 208.716ZM827.858 208.425L827.422 207.7L827.858 202.476C831.921 202.185 834.658 201.75 836.071 201.169C837.465 200.589 838.161 199.622 838.161 198.267C838.161 196.72 837.822 195.074 837.145 193.333L833.662 182.159C831.727 182.063 827.712 182.013 821.617 182.013C818.811 182.013 814.652 182.304 809.137 182.884L805.074 193.623C804.397 195.849 804.058 197.202 804.058 197.687C804.058 199.234 804.589 200.348 805.654 201.024C806.719 201.701 808.461 202.04 810.878 202.04H817.119L817.554 202.621L816.683 208.135C815.717 208.039 813.52 207.894 810.095 207.7C806.65 207.505 803.283 207.41 799.994 207.41C796.897 207.41 794.123 207.459 791.664 207.555C789.189 207.651 787.514 207.7 786.643 207.7L787.514 201.75C789.641 201.46 791.336 200.705 792.593 199.486C793.85 198.287 795.11 196.235 796.366 193.333L819.15 135.72L829.454 133.833L830.47 133.978C830.47 134.364 832.676 142.009 837.087 156.908C841.479 171.806 845.417 184.141 848.9 193.913C849.867 196.72 851.106 198.673 852.615 199.776C854.104 200.9 856.496 201.605 859.784 201.895L860.074 202.476L859.349 207.7C858.382 207.7 856.592 207.651 853.979 207.555C851.367 207.459 848.755 207.41 846.143 207.41C842.175 207.41 838.402 207.555 834.823 207.845C831.245 208.135 828.923 208.33 827.858 208.425ZM811.459 176.063H821.327C824.714 176.063 828.244 175.869 831.921 175.483L823.069 147.33H822.053L811.459 176.063ZM873.28 208.716L874.151 202.766C877.054 202.281 879.181 201.654 880.537 200.879C881.892 200.104 882.763 198.993 883.149 197.541C883.535 196.09 883.729 193.913 883.729 191.011V186.512C883.729 184.286 883.488 182.304 883.004 180.562C882.519 178.821 881.602 176.644 880.246 174.032L869.362 153.134C867.525 149.651 866.12 147.205 865.154 145.791C864.187 144.398 862.928 143.266 861.381 142.395C859.834 141.525 857.607 140.944 854.705 140.654L854.415 140.073L855.285 134.849C856.156 134.849 857.927 134.898 860.597 134.994C863.247 135.09 866.024 135.139 868.927 135.139C871.635 135.139 874.926 135.015 878.795 134.762C882.664 134.53 885.18 134.364 886.341 134.269L886.777 135.139L886.341 139.928C883.053 140.123 880.806 140.48 879.608 141.002C878.389 141.545 877.779 142.491 877.779 143.847C877.779 145.103 879.5 149.265 882.946 156.327C886.37 163.389 888.808 168.323 890.26 171.129H890.985L903.466 148.781C904.722 146.555 905.352 144.717 905.352 143.266C905.352 141.429 902.981 140.364 898.241 140.073L897.951 139.638L898.677 134.414C899.257 134.414 901.193 134.53 904.481 134.762C907.77 135.015 910.481 135.139 912.608 135.139C915.125 135.139 917.447 135.09 919.574 134.994C921.702 134.898 923.153 134.8 923.928 134.704L924.363 135.575L923.637 140.509C921.025 141.089 918.994 141.864 917.542 142.831C916.091 143.797 914.814 145.057 913.711 146.604C912.588 148.151 910.771 151.007 908.255 155.166L896.5 175.193C895.435 177.224 894.758 179.451 894.468 181.868C894.178 184.286 894.033 188.64 894.033 194.929C894.033 197.446 894.419 199.187 895.194 200.154C895.969 201.12 897.371 201.605 899.402 201.605C900.659 201.605 901.849 201.555 902.972 201.46C904.075 201.364 904.821 201.315 905.207 201.315L905.497 201.75L904.336 207.845C903.175 207.749 900.999 207.651 897.806 207.555C894.613 207.459 891.371 207.41 888.083 207.41C885.566 207.41 882.713 207.584 879.521 207.932C876.328 208.26 874.247 208.521 873.28 208.716Z" fill="#B2572B"/>
<path d="M344.314 316.105C335.607 316.105 327.965 314.268 321.385 310.591C314.805 306.913 309.755 301.709 306.235 294.976C302.694 288.262 300.923 280.356 300.923 271.263C300.923 261.589 303.1 252.853 307.454 245.054C311.807 237.275 317.835 231.18 325.536 226.769C333.218 222.377 341.897 220.18 351.57 220.18C355.149 220.18 358.806 220.441 362.541 220.964C366.257 221.507 369.4 222.038 371.974 222.56C374.528 223.103 376.145 223.469 376.821 223.663L377.402 224.534C377.207 225.114 376.9 226.516 376.473 228.742C376.029 230.968 375.544 233.871 375.022 237.45C374.479 241.028 374.064 244.801 373.774 248.769L366.808 249.35C366.904 248.865 367.003 247.965 367.098 246.65C367.194 245.353 367.243 243.884 367.243 242.239C367.243 233.241 360.132 228.742 345.911 228.742C339.525 228.742 333.915 230.289 329.077 233.386C324.238 236.483 320.514 240.854 317.902 246.505C315.29 252.174 313.984 258.832 313.984 266.474C313.984 274.891 315.368 282.292 318.134 288.677C320.883 295.063 324.772 300.017 329.802 303.538C334.832 307.079 340.637 308.849 347.217 308.849C353.796 308.849 359.096 306.983 363.122 303.247C367.127 299.532 370.05 293.757 371.887 285.92L378.853 285.34C378.563 286.791 377.933 290.004 376.967 294.976C376 299.968 375.321 304.641 374.935 308.994L374.064 310.3C374.064 310.396 372.593 310.948 369.652 311.955C366.692 312.979 363.015 313.928 358.623 314.799C354.212 315.67 349.443 316.105 344.314 316.105ZM423.55 315.67C416.971 315.67 411.148 314.219 406.078 311.316C400.99 308.414 397.06 304.301 394.294 298.981C391.545 293.661 390.173 287.516 390.173 280.551C390.173 273.004 391.885 266.204 395.31 260.147C398.755 254.109 403.457 249.37 409.416 245.925C415.357 242.5 422.003 240.787 429.355 240.787C436.031 240.787 441.931 242.239 447.06 245.141C452.189 248.043 456.153 252.127 458.96 257.389C461.767 262.672 463.168 268.796 463.168 275.762C463.168 283.308 461.456 290.099 458.031 296.137C454.586 302.194 449.846 306.963 443.809 310.445C437.752 313.928 431.001 315.67 423.55 315.67ZM427.033 308.704C434.095 308.704 439.804 306.159 444.158 301.071C448.511 296 450.688 289.258 450.688 280.841C450.688 274.455 449.652 268.845 447.582 264.007C445.493 259.168 442.541 255.445 438.73 252.832C434.899 250.22 430.467 248.914 425.437 248.914C418.567 248.914 413.023 251.431 408.806 256.46C404.606 261.49 402.508 268.215 402.508 276.632C402.508 283.018 403.524 288.628 405.555 293.466C407.587 298.305 410.46 302.049 414.176 304.699C417.911 307.369 422.195 308.704 427.033 308.704ZM517.153 316.395C507.381 289.888 500.078 270.488 495.24 258.202H494.515C494.129 262.846 493.432 271.504 492.425 284.179C491.4 296.853 490.887 303.819 490.887 305.076C490.887 306.333 491.177 307.232 491.757 307.775C492.338 308.298 493.304 308.559 494.66 308.559H499.304L499.594 308.994L498.578 314.799C497.707 314.799 496.044 314.732 493.586 314.596C491.11 314.442 488.66 314.364 486.243 314.364C484.307 314.364 482.229 314.489 480.002 314.741C477.776 314.973 476.325 315.139 475.649 315.234L476.229 309.285C478.746 308.994 480.534 308.24 481.599 307.021C482.664 305.822 483.39 303.721 483.776 300.722C484.551 294.143 485.595 284.904 486.91 273.004C488.208 261.104 488.855 254.429 488.855 252.978C488.855 251.042 488.109 249.611 486.62 248.682C485.111 247.773 482.519 247.222 478.841 247.028L478.406 246.302L479.422 241.513C480.487 241.609 482.374 241.725 485.082 241.861C487.79 242.015 490.402 242.093 492.918 242.093C495.046 242.093 497.011 242.044 498.81 241.948C500.589 241.853 501.771 241.754 502.351 241.658C505.254 250.656 508.089 259.102 510.855 266.996C513.604 274.87 515.876 281.151 517.676 285.833C519.455 290.535 520.587 293.466 521.072 294.627H521.797C522.862 291.919 525.26 285.58 528.995 275.616C532.71 265.652 536.745 254.429 541.098 241.948C541.679 241.853 542.434 241.824 543.362 241.861C544.271 241.919 545.162 241.948 546.033 241.948C547.098 242.044 548.645 242.093 550.676 242.093C552.223 242.093 554.479 241.998 557.439 241.803C560.379 241.609 562.335 241.464 563.302 241.368L563.592 241.803L562.867 246.882C559.479 247.268 557.111 247.919 555.756 248.827C554.4 249.756 553.724 251.187 553.724 253.123C553.724 255.059 554.064 261.2 554.74 271.553C555.416 281.906 556.095 290.709 556.771 297.965C557.256 302.319 557.883 305.172 558.658 306.527C559.433 307.883 560.739 308.559 562.576 308.559L565.914 308.414L566.204 308.849L565.189 314.654C564.414 314.654 562.916 314.605 560.69 314.509C558.464 314.413 556.095 314.364 553.579 314.364C551.062 314.364 548.209 314.509 545.017 314.799C541.824 315.089 540.132 315.234 539.937 315.234L540.518 309.285C543.034 308.994 544.822 308.414 545.887 307.543C546.953 306.672 547.484 305.366 547.484 303.625C547.484 301.883 546.982 294.967 545.974 282.872C544.95 270.778 544.242 262.556 543.856 258.202H543.13C537.421 272.81 530.165 291.919 521.362 315.525L517.153 316.395ZM620.915 316.395C611.143 289.888 603.84 270.488 599.002 258.202H598.276C597.89 262.846 597.194 271.504 596.186 284.179C595.162 296.853 594.648 303.819 594.648 305.076C594.648 306.333 594.938 307.232 595.519 307.775C596.099 308.298 597.066 308.559 598.421 308.559H603.065L603.355 308.994L602.339 314.799C601.469 314.799 599.806 314.732 597.347 314.596C594.872 314.442 592.422 314.364 590.004 314.364C588.068 314.364 585.99 314.489 583.764 314.741C581.538 314.973 580.087 315.139 579.41 315.234L579.991 309.285C582.507 308.994 584.295 308.24 585.36 307.021C586.426 305.822 587.151 303.721 587.537 300.722C588.312 294.143 589.357 284.904 590.672 273.004C591.969 261.104 592.616 254.429 592.616 252.978C592.616 251.042 591.87 249.611 590.382 248.682C588.872 247.773 586.28 247.222 582.603 247.028L582.168 246.302L583.184 241.513C584.249 241.609 586.135 241.725 588.843 241.861C591.551 242.015 594.163 242.093 596.68 242.093C598.807 242.093 600.772 242.044 602.572 241.948C604.351 241.853 605.532 241.754 606.113 241.658C609.015 250.656 611.851 259.102 614.617 266.996C617.365 274.87 619.638 281.151 621.437 285.833C623.217 290.535 624.349 293.466 624.833 294.627H625.559C626.624 291.919 629.021 285.58 632.757 275.616C636.472 265.652 640.506 254.429 644.86 241.948C645.44 241.853 646.195 241.824 647.124 241.861C648.032 241.919 648.923 241.948 649.794 241.948C650.859 242.044 652.406 242.093 654.438 242.093C655.985 242.093 658.24 241.998 661.201 241.803C664.141 241.609 666.097 241.464 667.063 241.368L667.354 241.803L666.628 246.882C663.241 247.268 660.873 247.919 659.517 248.827C658.162 249.756 657.485 251.187 657.485 253.123C657.485 255.059 657.825 261.2 658.501 271.553C659.178 281.906 659.857 290.709 660.533 297.965C661.018 302.319 661.645 305.172 662.42 306.527C663.195 307.883 664.501 308.559 666.338 308.559L669.676 308.414L669.966 308.849L668.95 314.654C668.175 314.654 666.677 314.605 664.451 314.509C662.225 314.413 659.857 314.364 657.34 314.364C654.824 314.364 651.971 314.509 648.778 314.799C645.586 315.089 643.893 315.234 643.699 315.234L644.279 309.285C646.796 308.994 648.584 308.414 649.649 307.543C650.714 306.672 651.245 305.366 651.245 303.625C651.245 301.883 650.743 294.967 649.736 282.872C648.711 270.778 648.003 262.556 647.617 258.202H646.892C641.183 272.81 633.927 291.919 625.123 315.525L620.915 316.395ZM684.333 315.67L685.059 309.72C688.736 309.044 691.203 308.045 692.46 306.73C693.716 305.433 694.346 303.189 694.346 299.997L694.491 253.848C694.491 251.431 694.201 249.805 693.621 248.972C693.04 248.16 691.879 247.753 690.138 247.753L685.349 247.898L685.059 247.318L685.784 241.803C686.365 241.803 687.932 241.853 690.486 241.948C693.06 242.044 696.427 242.093 700.586 242.093C702.813 242.093 705.541 241.948 708.771 241.658C712.022 241.368 714.132 241.173 715.099 241.078L714.518 247.028C711.325 247.414 709.198 248.014 708.133 248.827C707.068 249.66 706.441 251.187 706.246 253.413C705.86 261.154 705.492 269.716 705.143 279.099C704.815 288.483 704.65 295.739 704.65 300.867C704.65 303.964 704.989 306.042 705.666 307.108C706.342 308.173 707.697 308.704 709.729 308.704C711.085 308.704 712.321 308.655 713.444 308.559C714.547 308.463 715.293 308.364 715.679 308.269L715.969 308.849L714.953 314.654C713.792 314.654 711.616 314.605 708.423 314.509C705.23 314.413 702.038 314.364 698.845 314.364C696.233 314.364 693.397 314.538 690.341 314.886C687.302 315.214 685.299 315.475 684.333 315.67ZM735.996 314.944L737.012 309.139C740.881 308.849 743.609 308.364 745.197 307.688C746.802 307.012 747.818 305.868 748.244 304.263C748.688 302.676 748.912 299.901 748.912 295.933V247.898C742.817 248.093 738.704 248.429 736.576 248.914C734.449 249.399 732.87 250.531 731.846 252.31C730.838 254.109 729.997 257.476 729.32 262.41L722.5 262.846C722.694 261.589 723.002 258.803 723.429 254.487C723.873 250.191 724.145 245.962 724.241 241.803L725.402 240.787L735.706 241.948H772.712L783.305 240.787L784.466 241.803C784.562 246.061 784.806 250.27 785.192 254.429C785.578 258.588 785.868 261.249 786.063 262.41L779.387 262.846C778.612 257.816 777.712 254.35 776.688 252.455C775.681 250.577 774.183 249.399 772.189 248.914C770.215 248.429 766.422 248.093 760.812 247.898C760.327 252.542 759.892 260.254 759.506 271.031C759.12 281.828 758.925 291.774 758.925 300.867C758.925 303.674 759.456 305.656 760.521 306.817C761.587 307.978 763.328 308.559 765.746 308.559C767.487 308.559 768.909 308.51 770.012 308.414C771.136 308.318 771.841 308.269 772.131 308.269L772.566 308.704L771.551 314.799C770.195 314.799 767.682 314.732 764.004 314.596C760.327 314.442 756.748 314.364 753.265 314.364C749.782 314.364 746.349 314.442 742.962 314.596C739.575 314.732 737.253 314.848 735.996 314.944ZM806.235 314.944L807.25 309.139C811.119 308.849 813.848 308.364 815.435 307.688C817.04 307.012 818.056 305.868 818.483 304.263C818.927 302.676 819.15 299.901 819.15 295.933V247.898C813.055 248.093 808.943 248.429 806.815 248.914C804.688 249.399 803.109 250.531 802.084 252.31C801.077 254.109 800.235 257.476 799.559 262.41L792.738 262.846C792.933 261.589 793.24 258.803 793.667 254.487C794.111 250.191 794.384 245.962 794.48 241.803L795.641 240.787L805.944 241.948H842.95L853.544 240.787L854.705 241.803C854.801 246.061 855.045 250.27 855.431 254.429C855.817 258.588 856.107 261.249 856.301 262.41L849.626 262.846C848.851 257.816 847.951 254.35 846.926 252.455C845.919 250.577 844.422 249.399 842.428 248.914C840.454 248.429 836.661 248.093 831.05 247.898C830.566 252.542 830.13 260.254 829.744 271.031C829.358 281.828 829.164 291.774 829.164 300.867C829.164 303.674 829.695 305.656 830.76 306.817C831.825 307.978 833.567 308.559 835.984 308.559C837.726 308.559 839.148 308.51 840.251 308.414C841.374 308.318 842.079 308.269 842.37 308.269L842.805 308.704L841.789 314.799C840.434 314.799 837.92 314.732 834.243 314.596C830.566 314.442 826.987 314.364 823.504 314.364C820.021 314.364 816.587 314.442 813.2 314.596C809.813 314.732 807.491 314.848 806.235 314.944ZM866.895 315.525L867.621 309.43C871.199 309.044 873.62 308.173 874.877 306.817C876.134 305.462 876.763 303.14 876.763 299.852L876.908 253.848C876.908 251.431 876.618 249.805 876.038 248.972C875.457 248.16 874.296 247.753 872.555 247.753L868.637 247.898L868.346 247.318L869.217 241.803C870.378 241.803 872.651 241.853 876.038 241.948C879.425 242.044 883.099 242.093 887.067 242.093C903.225 242.093 915.171 241.658 922.912 240.787L923.347 241.513C923.153 242.578 922.717 244.996 922.041 248.769C921.365 252.542 920.88 256.606 920.59 260.959L913.624 261.54C913.624 261.154 913.673 260.495 913.769 259.566C913.865 258.658 913.914 257.717 913.914 256.751C913.914 254.234 913.546 252.464 912.811 251.439C912.095 250.432 910.597 249.756 908.313 249.408C906.049 249.08 902.11 248.914 896.5 248.914C893.888 248.914 892.097 248.981 891.13 249.117C890.164 249.271 889.534 249.611 889.244 250.133C888.954 250.676 888.759 251.671 888.663 253.123L887.793 273.73L899.693 273.875C901.434 273.875 903.997 273.701 907.384 273.353C910.771 273.025 912.994 272.81 914.059 272.714L914.64 273.44L912.899 280.986C911.833 280.986 909.726 280.937 906.571 280.841C903.437 280.745 900.128 280.696 896.645 280.696C893.937 280.696 890.889 280.937 887.502 281.421C887.212 288.773 887.067 295.402 887.067 301.303C887.067 303.529 887.232 305.076 887.56 305.947C887.909 306.817 888.684 307.398 889.882 307.688C891.101 307.978 893.113 308.124 895.919 308.124C902.209 308.124 906.708 307.833 909.416 307.253C912.124 306.672 914.03 305.482 915.133 303.683C916.257 301.904 917.156 298.836 917.833 294.482L924.218 293.902L924.798 294.627C924.508 295.692 923.994 298.177 923.26 302.086C922.543 306.013 921.992 310.106 921.606 314.364L920.735 315.089C918.123 314.994 912.704 314.848 904.481 314.654C896.259 314.46 889.583 314.364 884.455 314.364C880.487 314.364 876.813 314.538 873.426 314.886C870.038 315.214 867.862 315.429 866.895 315.525ZM940.617 315.525L941.342 309.43C944.921 309.044 947.342 308.173 948.598 306.817C949.855 305.462 950.485 303.14 950.485 299.852L950.63 253.848C950.63 251.431 950.34 249.805 949.759 248.972C949.179 248.16 948.018 247.753 946.276 247.753L942.358 247.898L942.068 247.318L942.939 241.803C944.1 241.803 946.372 241.853 949.759 241.948C953.146 242.044 956.821 242.093 960.788 242.093C976.946 242.093 988.893 241.658 996.633 240.787L997.069 241.513C996.874 242.578 996.439 244.996 995.763 248.769C995.086 252.542 994.602 256.606 994.311 260.959L987.346 261.54C987.346 261.154 987.395 260.495 987.491 259.566C987.587 258.658 987.636 257.717 987.636 256.751C987.636 254.234 987.267 252.464 986.533 251.439C985.816 250.432 984.318 249.756 982.034 249.408C979.77 249.08 975.832 248.914 970.221 248.914C967.609 248.914 965.818 248.981 964.852 249.117C963.885 249.271 963.256 249.611 962.965 250.133C962.675 250.676 962.481 251.671 962.385 253.123L961.514 273.73L973.414 273.875C975.155 273.875 977.718 273.701 981.105 273.353C984.493 273.025 986.716 272.81 987.781 272.714L988.361 273.44L986.62 280.986C985.555 280.986 983.448 280.937 980.293 280.841C977.158 280.745 973.849 280.696 970.366 280.696C967.658 280.696 964.611 280.937 961.224 281.421C960.934 288.773 960.788 295.402 960.788 301.303C960.788 303.529 960.954 305.076 961.282 305.947C961.63 306.817 962.405 307.398 963.604 307.688C964.823 307.978 966.834 308.124 969.641 308.124C975.93 308.124 980.429 307.833 983.137 307.253C985.845 306.672 987.752 305.482 988.855 303.683C989.978 301.904 990.878 298.836 991.554 294.482L997.939 293.902L998.52 294.627C998.23 295.692 997.716 298.177 996.982 302.086C996.265 306.013 995.713 310.106 995.327 314.364L994.457 315.089C991.844 314.994 986.426 314.848 978.203 314.654C969.98 314.46 963.305 314.364 958.176 314.364C954.209 314.364 950.534 314.538 947.147 314.886C943.76 315.214 941.583 315.429 940.617 315.525Z" fill="#B2572B"/>
</g>
</g>
</g>
</g>
<g clip-path="url(#clip7_934_5415)">
<g clip-path="url(#clip8_934_5415)">
<path d="M220.761 286.709C227.688 285.486 233.599 283.657 235.638 282.43C237.674 281.208 237.674 282.028 240.936 287.322C244.194 292.62 244.194 294.862 244.194 294.862C246.533 297.204 246.034 302.199 243.178 303.625C240.323 305.051 238.287 300.876 238.287 300.876C238.287 300.876 238.287 308.927 235.025 308.927C231.766 308.927 229.93 305.055 229.93 305.055C230.137 308.313 229.93 313.002 226.879 313.002C223.823 313.002 222.796 308.11 222.796 308.11C222.796 308.11 223.816 315.037 218.925 315.037C214.033 315.037 214.24 309.326 214.24 309.326C213.627 312.991 207.926 317.882 202.425 317.882C196.917 317.882 191.826 314.827 191.416 306.877C191.013 298.93 198.757 283.849 198.757 283.849C201.398 283.044 213.827 287.939 220.761 286.709ZM202.892 312.727C207.58 312.727 207.784 306.481 207.784 306.481C207.784 306.481 205.227 306.663 203.545 306.577C201.299 306.477 199.431 305.732 199.431 305.732C198.136 308.242 198.211 312.727 202.892 312.727Z" fill="#D6ACAE"/>
<path d="M199.769 271.019C199.769 271.019 197.73 281.208 204.864 279.988C211.998 278.769 214.329 277.001 218.543 276.324C222.326 275.714 226.39 275.817 232.38 276.63C232.38 276.63 232.672 275.069 232.38 271.432C232.037 267.222 230.679 265.589 230.679 265.589C230.679 265.589 219.513 266.263 214.376 266.876C205.848 267.899 199.769 271.019 199.769 271.019Z" fill="#D6ACAE"/>
<path d="M234.073 260.423C234.073 260.423 220.483 259.061 215.053 260.423C209.62 261.781 198.75 265.578 198.75 265.578C198.75 265.578 193.595 258.519 188.015 233.385C182.443 208.251 183.53 190.183 203.235 185.295C222.932 180.4 232.444 213.962 233.531 228.494C234.619 243.032 234.073 260.423 234.073 260.423Z" fill="#D6ACAE"/>
<path d="M152.692 314.224C152.692 314.224 156.225 306.887 156.225 296.427C156.225 285.967 152.692 280.092 152.692 280.092C152.692 280.092 159.897 274.687 163.159 274.013C166.417 273.336 165.608 273.197 169.273 272.245C172.942 271.289 173.89 268.444 175.929 267.899C177.965 267.357 189.377 267.899 189.377 274.352C189.377 280.812 180.072 279.988 180.072 280.669C180.072 281.343 179.669 283.183 180.478 283.115C181.295 283.044 189.106 281.889 189.106 286.855C189.106 291.814 180.001 289.707 180.343 291.4C180.685 293.101 188.7 291.129 188.7 295.14C188.7 299.144 184.015 298.399 183.812 299.144C183.601 299.896 187.684 300.773 187.684 304.72C187.684 308.659 181.027 307.771 181.027 308.934C181.027 310.082 180.143 315.248 176.272 315.387C172.4 315.526 170.361 313.08 169.344 313.144C168.325 313.219 165.202 315.116 161.259 315.116C157.312 315.112 152.692 314.224 152.692 314.224ZM180.001 272.833C180.001 272.833 180.61 273.799 180.475 274.887C180.343 275.974 180.496 277.193 180.496 277.193C180.496 277.193 185.794 276.309 185.106 273.796C184.414 271.296 180.001 272.833 180.001 272.833Z" fill="#D6ACAE"/>
<path d="M135.568 309.469C135.568 309.469 145.893 312.595 145.893 304.039C145.893 295.482 149.561 278.769 140.734 278.769C131.9 278.769 132.851 283.386 132.851 283.386C132.851 283.386 136.117 289.91 136.117 295.885C136.117 301.86 135.568 309.469 135.568 309.469Z" fill="#D6ACAE"/>
<path d="M122.124 281.931C122.124 281.931 124.163 289.568 124.98 295.269C125.796 300.969 128.445 309.939 119.881 312.998C111.325 316.053 94.4085 323.597 75.2494 321.355C56.0939 319.112 39.9937 306.763 35.3091 294.392C30.621 282.017 31.6406 273.871 42.4394 268.772C53.2382 263.674 64.857 260.548 74.2334 265.578C83.6061 270.605 95.6314 281.425 105.617 281.928C115.603 282.427 122.124 281.931 122.124 281.931Z" fill="#D6ACAE"/>
<path d="M169.405 265.578C169.405 265.578 166.656 266.427 165.744 268.573C165.744 268.573 161.662 268.477 158.403 270.912C155.144 273.361 153.815 276.113 153.815 276.113C153.815 276.113 149.615 271.628 139.747 271.628C129.878 271.628 124.983 278.759 124.983 278.759C124.983 278.759 104.872 276.719 96.5869 272.167C88.3015 267.618 77.4314 262.181 77.4314 262.181C77.4314 262.181 89.5244 252.262 90.0663 240.576C90.6082 228.889 83.9592 212.721 79.3352 204.846C74.7112 196.971 72.4045 190.582 72.4045 190.582L77.2959 186.871C77.2959 186.871 92.7829 233.242 117.921 247.371C143.048 261.514 169.405 265.578 169.405 265.578Z" fill="#D6ACAE"/>
<path d="M72.401 256.776C86.3799 254.027 86.4619 237.599 85.2426 229.652C84.0162 221.706 83.2034 216.611 80.3513 217.834C77.4956 219.06 79.107 228.558 76.23 228.558C70.5222 228.558 74.4402 217.221 69.3456 217.025C64.2511 216.818 67.5096 228.433 64.661 227.82C61.8054 227.207 60.3793 216.818 56.5076 216.818C52.6358 216.818 56.1011 230.062 53.4522 230.679C50.8033 231.289 48.7676 220.283 44.6891 220.283C40.6142 220.283 46.1152 235.161 41.2238 235.973C36.3324 236.786 38.5678 233.146 32.6603 232.825C26.7564 232.505 27.9793 240.861 39.7977 249.628C49.3559 256.712 55.8944 260.017 72.401 256.776Z" fill="#D6ACAE"/>
<path d="M58.5431 209.68C62.6181 209.68 65.8802 217.627 70.5648 212.939C75.2494 208.258 65.6734 199.897 58.5431 201.527C51.4093 203.156 44.8886 204.792 48.5536 210.087C52.2186 215.381 58.5431 209.68 58.5431 209.68Z" fill="#D6ACAE"/>
<path d="M33.883 184.806C33.883 184.806 46.5179 195.616 45.0918 200.308C43.6693 204.989 36.3287 205.809 36.5354 216.811C36.7387 227.82 35.1094 233.934 24.9166 227.413C14.731 220.893 18.6028 209.474 20.232 201.324C21.8577 193.17 32.3464 183.427 33.883 184.806Z" fill="#D6ACAE"/>
<path d="M206.493 170.649C215.948 170.649 224.426 167.02 226.469 156.125C228.508 145.223 228.237 134.688 228.237 126.937C228.237 119.186 229.866 115.069 227.146 115.311C224.426 115.554 224.019 125.329 221.984 125.001C218.996 124.516 221.713 112.648 217.606 112.648C214.632 112.652 215.737 127.907 212.472 127.179C209.213 126.456 210.026 115.072 206.493 114.83C202.967 114.587 207.584 132.509 204.044 131.301C200.511 130.092 201.876 119.432 196.985 120.16C192.033 120.894 200.243 140.748 197.527 140.987C194.81 141.23 195.352 135.419 191.006 137.597C188.4 138.902 193.455 170.649 206.493 170.649Z" fill="#D6ACAE"/>
<path d="M136.085 140.492C136.284 139.797 136.344 139.07 136.262 138.352C136.18 137.635 135.957 136.94 135.606 136.309C135.256 135.677 134.784 135.12 134.218 134.671C133.653 134.222 133.004 133.888 132.31 133.689C131.615 133.491 130.888 133.431 130.171 133.513C129.453 133.595 128.758 133.818 128.127 134.168C127.495 134.519 126.939 134.99 126.489 135.556C126.04 136.122 125.706 136.77 125.507 137.465C124.67 140.385 126.135 144.217 129.055 145.051C131.975 145.886 135.247 143.415 136.085 140.492Z" fill="#D6ACAE"/>
<path d="M177.958 179.377C178.073 178.975 178.108 178.554 178.06 178.139C178.013 177.724 177.884 177.322 177.682 176.957C177.479 176.591 177.207 176.269 176.88 176.009C176.553 175.749 176.177 175.556 175.776 175.441C175.374 175.325 174.954 175.291 174.538 175.338C174.123 175.385 173.721 175.514 173.356 175.716C172.99 175.919 172.668 176.192 172.408 176.519C172.148 176.846 171.955 177.221 171.84 177.622C171.348 179.32 172.207 181.537 173.89 182.015C175.58 182.496 177.473 181.066 177.958 179.377Z" fill="#D6ACAE"/>
<path d="M129.582 82.879C109.771 92.6225 101.639 87.9165 93.9414 74.6328C100.491 74.6364 115.945 71.6131 129.582 82.879Z" fill="#D6ACAE"/>
<path d="M173.893 194.653C174.01 194.251 174.047 193.83 174 193.414C173.954 192.998 173.825 192.595 173.622 192.229C173.42 191.863 173.146 191.54 172.818 191.28C172.49 191.02 172.114 190.828 171.711 190.714C171.31 190.597 170.889 190.561 170.473 190.608C170.057 190.655 169.655 190.784 169.289 190.987C168.923 191.19 168.601 191.464 168.341 191.792C168.082 192.12 167.889 192.496 167.776 192.899C167.287 194.592 168.143 196.813 169.829 197.291C171.519 197.773 173.416 196.336 173.893 194.653Z" fill="#D6ACAE"/>
<path d="M164.727 209.345C164.842 208.943 164.877 208.523 164.83 208.108C164.782 207.693 164.653 207.291 164.45 206.926C164.248 206.56 163.975 206.239 163.648 205.979C163.321 205.719 162.945 205.526 162.544 205.411C162.142 205.296 161.722 205.261 161.307 205.309C160.891 205.356 160.49 205.485 160.124 205.688C159.759 205.891 159.437 206.163 159.177 206.491C158.918 206.818 158.725 207.193 158.61 207.595C158.118 209.288 158.977 211.502 160.66 211.983C162.349 212.472 164.243 211.035 164.727 209.345Z" fill="#D6ACAE"/>
<path d="M151.889 219.509C152.022 219.102 152.072 218.672 152.034 218.245C151.997 217.818 151.875 217.403 151.673 217.025C151.472 216.647 151.197 216.313 150.864 216.043C150.531 215.774 150.147 215.574 149.735 215.457C149.323 215.339 148.892 215.305 148.466 215.358C148.041 215.411 147.631 215.549 147.26 215.764C146.89 215.979 146.566 216.266 146.309 216.609C146.052 216.952 145.867 217.343 145.764 217.759C145.28 219.449 146.132 221.67 147.818 222.148C149.508 222.629 151.405 221.203 151.889 219.509Z" fill="#D6ACAE"/>
<path d="M131.237 222.461C131.352 222.059 131.387 221.639 131.339 221.223C131.292 220.808 131.163 220.406 130.96 220.04C130.757 219.675 130.485 219.352 130.157 219.092C129.83 218.832 129.455 218.639 129.053 218.524C128.651 218.408 128.23 218.374 127.815 218.421C127.399 218.468 126.997 218.597 126.632 218.8C126.266 219.003 125.944 219.275 125.684 219.603C125.424 219.93 125.23 220.305 125.115 220.707C124.627 222.401 125.479 224.618 127.169 225.099C128.855 225.581 130.759 224.151 131.237 222.461Z" fill="#D6ACAE"/>
<path d="M116.431 212.746C116.628 211.945 116.507 211.099 116.093 210.385C115.679 209.672 115.005 209.146 114.212 208.92C113.418 208.693 112.568 208.783 111.84 209.17C111.111 209.557 110.561 210.212 110.306 210.996C109.824 212.682 110.673 214.911 112.359 215.388C114.049 215.873 115.942 214.44 116.431 212.746Z" fill="#D6ACAE"/>
<path d="M104.405 199.594C104.52 199.192 104.555 198.771 104.508 198.356C104.46 197.94 104.331 197.538 104.128 197.172C103.925 196.806 103.652 196.484 103.325 196.224C102.997 195.963 102.622 195.77 102.22 195.655C101.817 195.54 101.397 195.505 100.981 195.552C100.565 195.6 100.163 195.729 99.7973 195.932C99.4315 196.135 99.1092 196.408 98.8489 196.735C98.5886 197.063 98.3954 197.438 98.2802 197.84C97.7989 199.53 98.6474 201.755 100.337 202.233C102.027 202.71 103.92 201.288 104.405 199.594Z" fill="#D6ACAE"/>
<path d="M96.6617 187.544C96.8407 186.75 96.7091 185.917 96.2936 185.216C95.8782 184.515 95.2105 184 94.4274 183.776C93.6443 183.551 92.805 183.635 92.0816 184.01C91.3582 184.384 90.8055 185.021 90.5368 185.79C90.0555 187.484 90.904 189.705 92.5939 190.183C94.2837 190.66 96.1768 189.234 96.6617 187.544Z" fill="#D6ACAE"/>
<path d="M111.689 43.484C111.754 43.2742 111.776 43.0536 111.754 42.835C111.733 42.6165 111.668 42.4045 111.563 42.2114C111.459 42.0183 111.317 41.848 111.145 41.7105C110.974 41.573 110.777 41.471 110.566 41.4105C110.355 41.35 110.134 41.3323 109.916 41.3583C109.698 41.3843 109.487 41.4536 109.296 41.562C109.106 41.6704 108.938 41.8159 108.804 41.9898C108.67 42.1637 108.572 42.3626 108.516 42.5749C108.266 43.4483 108.708 44.5999 109.582 44.853C110.455 45.1026 111.439 44.3575 111.689 43.484Z" fill="#D6ACAE"/>
<path d="M102.587 46.9886C102.697 46.571 102.64 46.1267 102.427 45.7511C102.213 45.3754 101.861 45.0984 101.446 44.9794C101.031 44.8604 100.585 44.9089 100.205 45.1146C99.8254 45.3203 99.5413 45.6667 99.4139 46.0795C99.1644 46.9566 99.6029 48.1045 100.48 48.3577C101.357 48.6108 102.337 47.8657 102.587 46.9886Z" fill="#D6ACAE"/>
<path d="M94.9006 51.2096C94.9653 50.9998 94.9875 50.7791 94.9659 50.5606C94.9444 50.3421 94.8794 50.1301 94.7748 49.937C94.6703 49.7439 94.5283 49.5736 94.3571 49.4361C94.1859 49.2986 93.989 49.1966 93.7779 49.1361C93.5668 49.0756 93.3458 49.0579 93.1278 49.0839C92.9097 49.1099 92.6991 49.1791 92.5082 49.2876C92.3172 49.396 92.1498 49.5414 92.0158 49.7154C91.8818 49.8893 91.7838 50.0882 91.7276 50.3005C91.478 51.1775 91.9201 52.3255 92.7936 52.5786C93.667 52.8282 94.651 52.0866 94.9006 51.2096Z" fill="#D6ACAE"/>
<path d="M87.157 55.6271C87.2445 55.2172 87.1732 54.7894 86.9575 54.4302C86.7417 54.0709 86.3977 53.8069 85.9948 53.6914C85.592 53.576 85.1603 53.6178 84.7871 53.8083C84.4138 53.9989 84.1268 54.324 83.984 54.7179C83.7344 55.595 84.173 56.7429 85.05 56.9961C85.927 57.2492 86.9074 56.5041 87.157 55.6271Z" fill="#D6ACAE"/>
<path d="M112.505 22.9914C112.626 22.5711 112.575 22.1201 112.363 21.7377C112.151 21.3552 111.795 21.0726 111.375 20.9521C110.955 20.8315 110.504 20.8829 110.121 21.0948C109.739 21.3068 109.456 21.662 109.336 22.0822C109.083 22.9593 109.525 24.1072 110.398 24.3604C111.272 24.6099 112.252 23.8684 112.505 22.9914Z" fill="#D6ACAE"/>
<path d="M118.345 17.8151C118.465 17.3948 118.414 16.9438 118.202 16.5614C117.99 16.179 117.635 15.8964 117.215 15.7758C116.794 15.6553 116.343 15.7066 115.961 15.9186C115.579 16.1305 115.296 16.4857 115.175 16.906C114.926 17.783 115.364 18.931 116.238 19.1841C117.115 19.4337 118.095 18.6921 118.345 17.8151Z" fill="#D6ACAE"/>
<path d="M124.912 15.2981C124.984 15.0864 125.013 14.8622 124.996 14.6392C124.979 14.4161 124.917 14.1988 124.813 14.0005C124.71 13.8022 124.567 13.627 124.394 13.4856C124.22 13.3442 124.02 13.2394 123.805 13.1778C123.59 13.1161 123.365 13.0987 123.143 13.1268C122.921 13.1549 122.707 13.2278 122.514 13.3411C122.321 13.4543 122.153 13.6056 122.021 13.7858C121.888 13.9659 121.793 14.1711 121.742 14.389C121.489 15.2624 121.931 16.414 122.805 16.6671C123.678 16.9166 124.662 16.1715 124.912 15.2981Z" fill="#D6ACAE"/>
<path d="M80.5082 60.3971C80.5678 60.189 80.586 59.9712 80.5615 59.7561C80.537 59.541 80.4704 59.3328 80.3654 59.1434C80.2605 58.9541 80.1193 58.7872 79.9498 58.6524C79.7804 58.5176 79.5861 58.4175 79.378 58.3578C79.1699 58.2982 78.9521 58.28 78.737 58.3045C78.5219 58.329 78.3137 58.3956 78.1243 58.5006C77.935 58.6055 77.7681 58.7467 77.6333 58.9162C77.4985 59.0856 77.3984 59.2799 77.3387 59.488C77.0892 60.365 77.5277 61.513 78.4047 61.7661C79.2817 62.0193 80.2586 61.2777 80.5082 60.3971Z" fill="#D6ACAE"/>
<path d="M74.1976 66.5823C74.2585 66.3742 74.2775 66.1561 74.2536 65.9406C74.2296 65.7251 74.1632 65.5165 74.0581 65.3268C73.953 65.1372 73.8113 64.9703 73.6413 64.8357C73.4712 64.7012 73.2762 64.6017 73.0675 64.543C72.8594 64.4821 72.6413 64.4631 72.4258 64.4871C72.2103 64.511 72.0017 64.5775 71.812 64.6826C71.6224 64.7877 71.4555 64.9294 71.3209 65.0994C71.1864 65.2694 71.0869 65.4644 71.0282 65.6732C70.7787 66.5502 71.2172 67.6982 72.0906 67.9513C72.9677 68.2009 73.9481 67.4593 74.1976 66.5823Z" fill="#D6ACAE"/>
<path d="M68.9641 73.1422C69.0516 72.7324 68.9803 72.3046 68.7646 71.9453C68.5489 71.586 68.2048 71.322 67.802 71.2066C67.3991 71.0911 66.9675 71.1329 66.5942 71.3235C66.221 71.514 65.9339 71.8391 65.7911 72.2331C65.5416 73.1101 65.9801 74.2581 66.8571 74.5112C67.7341 74.7643 68.711 74.0192 68.9641 73.1422Z" fill="#D6ACAE"/>
<path d="M64.7502 80.4759C64.8608 80.0583 64.8032 79.614 64.5899 79.2384C64.3766 78.8627 64.0245 78.5857 63.6092 78.4667C63.1939 78.3477 62.7485 78.3963 62.3686 78.6019C61.9887 78.8076 61.7046 79.154 61.5773 79.5668C61.3277 80.4439 61.7662 81.5918 62.6432 81.845C63.5203 82.0981 64.5007 81.353 64.7502 80.4759Z" fill="#D6ACAE"/>
<path d="M78.8537 17.0593C78.9261 16.8476 78.9546 16.6234 78.9376 16.4004C78.9206 16.1773 78.8585 15.9601 78.755 15.7618C78.6515 15.5635 78.5087 15.3883 78.3354 15.2468C78.1621 15.1054 77.9619 15.0007 77.7468 14.939C77.5318 14.8773 77.3065 14.86 77.0846 14.888C76.8626 14.9161 76.6487 14.989 76.4558 15.1023C76.2629 15.2156 76.0951 15.3669 75.9625 15.547C75.8298 15.7271 75.7352 15.9324 75.6843 16.1502C75.4312 17.0236 75.8733 18.1752 76.7467 18.4283C77.6202 18.6779 78.6042 17.9363 78.8537 17.0593Z" fill="#D6ACAE"/>
<path d="M1.75045 1.46871C-0.695238 3.9144 14.2498 27.152 14.2498 27.152C18.8703 13.9681 29.7404 5.27272 29.7404 5.27272C29.7404 5.27272 4.19614 -0.973414 1.75045 1.46871ZM15.2481 18.8203C14.9985 19.6937 14.0145 20.4388 13.1375 20.1893C12.2605 19.9397 11.822 18.7846 12.0715 17.9112C12.1312 17.7026 12.2314 17.5078 12.3664 17.338C12.5014 17.1681 12.6685 17.0265 12.8582 16.9212C13.0479 16.8159 13.2564 16.7491 13.472 16.7244C13.6875 16.6997 13.9058 16.7177 14.1144 16.7774C14.3229 16.8371 14.5177 16.9373 14.6876 17.0723C14.8574 17.2073 14.999 17.3744 15.1043 17.5641C15.2096 17.7538 15.2765 17.9623 15.3011 18.1779C15.3258 18.3934 15.3078 18.6117 15.2481 18.8203ZM18.963 13.3371C18.7134 14.2105 17.7294 14.9557 16.8524 14.7061C15.9789 14.4565 15.5369 13.3014 15.79 12.428C15.8462 12.2157 15.9442 12.0168 16.0782 11.8429C16.2122 11.6689 16.3796 11.5235 16.5706 11.4151C16.7615 11.3066 16.9721 11.2374 17.1902 11.2114C17.4082 11.1854 17.6292 11.2031 17.8403 11.2636C18.0514 11.3241 18.2483 11.4261 18.4195 11.5636C18.5907 11.7011 18.7327 11.8714 18.8372 12.0645C18.9418 12.2576 19.0068 12.4696 19.0283 12.6881C19.0499 12.9066 19.0277 13.1273 18.963 13.3371ZM22.6814 8.40292C22.4319 9.27994 21.4479 10.0251 20.5709 9.7755C19.6938 9.52594 19.2553 8.37083 19.5049 7.4938C19.5636 7.28507 19.663 7.09005 19.7976 6.92002C19.9321 6.74999 20.099 6.60832 20.2887 6.50322C20.4783 6.39812 20.6869 6.33167 20.9024 6.30771C21.1179 6.28376 21.336 6.30277 21.5441 6.36365C22.4247 6.61321 22.9345 7.52589 22.6814 8.40292Z" fill="#D6ACAE"/>
<path d="M70.2082 20.5851C70.2957 20.1752 70.2244 19.7475 70.0087 19.3882C69.793 19.0289 69.449 18.7649 69.0461 18.6494C68.6433 18.534 68.2116 18.5758 67.8383 18.7663C67.4651 18.9569 67.1781 19.282 67.0353 19.6759C66.7857 20.5494 67.2242 21.7009 68.1013 21.9541C68.9783 22.2072 69.9587 21.4621 70.2082 20.5851Z" fill="#D6ACAE"/>
<path d="M62.2974 25.7367C62.4079 25.3191 62.3504 24.8748 62.137 24.4991C61.9237 24.1235 61.5716 23.8464 61.1563 23.7274C60.741 23.6084 60.2956 23.657 59.9158 23.8627C59.5359 24.0684 59.2517 24.4148 59.1244 24.8276C58.8748 25.7046 59.3133 26.8526 60.1904 27.1057C61.0674 27.3588 62.0407 26.6137 62.2974 25.7367Z" fill="#D6ACAE"/>
<path d="M55.2276 30.8278C55.3482 30.4075 55.2969 29.9565 55.0849 29.5741C54.873 29.1917 54.5178 28.9091 54.0975 28.7885C53.6772 28.668 53.2262 28.7193 52.8438 28.9312C52.4614 29.1432 52.1788 29.4984 52.0582 29.9187C51.8087 30.7957 52.2472 31.9437 53.1242 32.1968C54.0012 32.4499 54.9781 31.7048 55.2276 30.8278Z" fill="#D6ACAE"/>
<path d="M48.7854 36.7211C48.896 36.3035 48.8384 35.8591 48.6251 35.4835C48.4117 35.1078 48.0597 34.8308 47.6444 34.7118C47.2291 34.5928 46.7837 34.6414 46.4038 34.8471C46.0239 35.0527 45.7398 35.3992 45.6124 35.812C45.3629 36.689 45.8014 37.837 46.6784 38.0901C47.5554 38.3432 48.5323 37.5981 48.7854 36.7211Z" fill="#D6ACAE"/>
<path d="M42.7495 43.484C42.837 43.0742 42.7657 42.6464 42.55 42.2871C42.3343 41.9278 41.9902 41.6638 41.5874 41.5484C41.1845 41.4329 40.7529 41.4747 40.3796 41.6653C40.0064 41.8558 39.7193 42.1809 39.5765 42.5749C39.327 43.4483 39.7655 44.5999 40.6425 44.853C41.5195 45.1061 42.4964 44.3574 42.7495 43.484Z" fill="#D6ACAE"/>
<path d="M38.5749 50.5109C38.6346 50.3028 38.6527 50.0849 38.6283 49.8698C38.6038 49.6547 38.5371 49.4466 38.4322 49.2572C38.3273 49.0678 38.186 48.901 38.0166 48.7662C37.8472 48.6314 37.6529 48.5313 37.4448 48.4716C37.2367 48.4119 37.0189 48.3938 36.8037 48.4183C36.5886 48.4428 36.3805 48.5094 36.1911 48.6144C36.0017 48.7193 35.8349 48.8605 35.7001 49.0299C35.5653 49.1994 35.4652 49.3937 35.4055 49.6018C35.1524 50.4788 35.5945 51.6268 36.4679 51.8799C37.345 52.1295 38.3254 51.3879 38.5749 50.5109Z" fill="#D6ACAE"/>
<path d="M35.2664 57.9227C35.3769 57.5051 35.3194 57.0608 35.106 56.6851C34.8927 56.3095 34.5406 56.0324 34.1253 55.9135C33.71 55.7945 33.2646 55.843 32.8848 56.0487C32.5049 56.2544 32.2207 56.6008 32.0934 57.0136C31.8438 57.8906 32.2823 59.0386 33.1594 59.2917C34.0364 59.5449 35.0168 58.7997 35.2664 57.9227Z" fill="#D6ACAE"/>
<path d="M15.3372 43.7905C0.666594 98.2018 29.6619 111.653 31.6691 130.605C33.6763 149.558 20.8417 169.872 42.033 184.678C30.6209 142.424 82.3833 170.756 76.2726 120.006C71.4383 79.8876 23.6903 94.1268 15.3372 43.7905Z" fill="#D6ACAE"/>
<path d="M139.379 38.5605C172.803 16.0074 179.865 43.1809 202.696 27.1484C231.225 78.5043 193.185 113.015 193.185 113.015C179.327 70.0799 157.312 47.7978 139.379 38.5605Z" fill="#D6ACAE"/>
<path d="M106.23 184.806C132.591 196.165 136.121 195.53 158.941 186.878C158.941 216.81 122.327 227.214 106.23 184.806Z" fill="#D6ACAE"/>
<path d="M152.692 178.496C192.072 166.881 186.728 137.126 182.033 112.06C177.352 86.993 135.771 46.6392 135.771 46.6392C131.09 54.5859 120.894 62.3294 94.6046 73.1353C124.359 64.9818 139.033 76.6006 127.821 86.583C107.136 105.011 93.5814 91.6776 89.5065 77.4135C78.9073 81.8984 75.6452 84.7506 69.941 91.6776C84.6151 110.427 92.9718 122.245 81.7594 148.945C93.1714 156.285 105.197 156.485 120.89 149.151C116.541 133.475 127.005 118.99 138.01 124.698C149.016 130.406 156.356 160.567 114.983 161.173C106.765 161.294 80.7433 159.341 64.6467 163.009C48.543 166.678 51.8051 188.685 46.1008 191.947C63.0816 195.384 61.5201 182.111 78.9109 179.369C118.291 173.148 131.81 184.657 152.692 178.496ZM130.684 60.5004L140.463 54.9994L141.689 67.2279L130.684 60.5004Z" fill="#D6ACAE"/>
<path d="M198.543 175.644C191.202 174.015 189.987 172.999 186.728 163.013C178.981 210.697 161.861 224.964 147.804 230.087C133.964 235.125 91.3355 223.759 85.1036 181.972L80.7434 183.48C91.8132 215.331 106.138 254.116 191.395 265.582C172.428 214.5 177.965 195.819 198.543 175.644Z" fill="#D6ACAE"/>
<path d="M118.491 45.377C116.302 45.9224 77.4065 55.9975 67.3706 85.5668C84.4583 57.8122 117.707 48.5036 120.684 47.7193C119.957 46.9346 119.226 46.1538 118.491 45.377Z" fill="#D6ACAE"/>
<path d="M109.874 36.728C103.304 38.1862 65.1815 47.9796 57.8623 79.8627C70.8537 48.4395 105.639 39.8297 111.753 38.5391C111.131 37.9308 110.505 37.327 109.874 36.728Z" fill="#D6ACAE"/>
<path d="M95.2392 24.043C65.1743 27.929 23.4871 69.2347 52.0189 77.6877C60.1332 44.9918 96.4406 35.2054 106.056 33.1662C102.57 29.9859 98.9617 26.9425 95.2392 24.043Z" fill="#D6ACAE"/>
<path d="M86.0697 17.4727C73.9126 21.9077 42.4252 35.9258 35.9866 63.9657C48.2115 34.3893 82.1873 23.7758 91.6527 21.3444C89.8244 20.0074 87.9628 18.7164 86.0697 17.4727Z" fill="#D6ACAE"/>
<path d="M62.9604 6.29932C38.197 10.1247 16.6813 41.3589 28.8884 58.1936C37.3484 29.0521 65.8945 15.8254 77.2674 12.2353C71.5774 9.2156 66.7787 7.39025 62.9604 6.29932Z" fill="#D6ACAE"/>
<path d="M122.912 11.0341C115.489 3.98578 105.058 -0.117701 94.9682 4.86994C92.7756 5.95374 98.8221 13.904 106.601 21.8365C108.797 15.8862 113.489 12.0608 122.912 11.0341Z" fill="#D6ACAE"/>
<path d="M129.058 18.5815C121.814 18.4496 116.48 19.8222 112.819 27.7404C113.211 28.0933 114.42 29.252 114.812 29.5943C117.243 24.6744 121.839 21.4978 130.188 20.5459C129.832 19.8864 129.454 19.234 129.058 18.5815Z" fill="#D6ACAE"/>
<path d="M119.479 33.4196C124.962 37.6265 129.593 40.0009 131.09 38.1399C133.778 34.7993 133.821 29.8188 131.989 24.6387C125.693 24.7135 120.331 27.5942 119.479 33.4196Z" fill="#D6ACAE"/>
<path d="M19.0058 31.7116C24.8491 20.8986 35.9438 14.1319 33.6764 10.303C31.9116 7.31179 17.783 21.3264 19.0058 31.7116Z" fill="#D6ACAE"/>
</g>
</g>
</g>
</g>
</g>
<defs>
<clipPath id="clip0_934_5415">
<rect width="1000" height="322.667" fill="white"/>
</clipPath>
<clipPath id="clip1_934_5415">
<rect width="997.04" height="322.467" fill="white" transform="translate(1.47998 0.100098)"/>
</clipPath>
<clipPath id="clip2_934_5415">
<rect width="997.04" height="322.467" fill="white" transform="translate(1.47998 0.100098)"/>
</clipPath>
<clipPath id="clip3_934_5415">
<rect width="697.597" height="320.863" fill="white" transform="translate(300.923 0.902344)"/>
</clipPath>
<clipPath id="clip4_934_5415">
<rect width="697.597" height="320.863" fill="white" transform="translate(300.923 0.902344)"/>
</clipPath>
<clipPath id="clip5_934_5415">
<rect width="697.597" height="320.863" fill="white" transform="translate(300.923 0.902344)"/>
</clipPath>
<clipPath id="clip6_934_5415">
<rect width="697.597" height="320.863" fill="white" transform="translate(300.923 0.902344)"/>
</clipPath>
<clipPath id="clip7_934_5415">
<rect width="244.196" height="320.863" fill="white" transform="translate(1.47998 0.902344)"/>
</clipPath>
<clipPath id="clip8_934_5415">
<rect width="244.196" height="320.863" fill="white" transform="translate(1.47998 0.902344)"/>
</clipPath>
</defs>
</svg>
